<?xml version="1.0" encoding="UTF-8" standalone="no"?>
<svg
   xmlns:dc="http://purl.org/dc/elements/1.1/"
   xmlns:cc="http://creativecommons.org/ns#"
   xmlns:rdf="http://www.w3.org/1999/02/22-rdf-syntax-ns#"
   xmlns:svg="http://www.w3.org/2000/svg"
   xmlns="http://www.w3.org/2000/svg"
   xmlns:sodipodi="http://sodipodi.sourceforge.net/DTD/sodipodi-0.dtd"
   xmlns:inkscape="http://www.inkscape.org/namespaces/inkscape"
   version="1.1"
   width="893"
   height="684"
   id="svg67"
   sodipodi:docname="plan1.svg"
   inkscape:version="0.92.4 (5da689c313, 2019-01-14)">
  <metadata
     id="metadata73">
    <rdf:RDF>
      <cc:Work
         rdf:about="">
        <dc:format>image/svg+xml</dc:format>
        <dc:type
           rdf:resource="http://purl.org/dc/dcmitype/StillImage" />
        <dc:title></dc:title>
      </cc:Work>
    </rdf:RDF>
  </metadata>
  <defs
     id="defs71" />
  <sodipodi:namedview
     pagecolor="#ffffff"
     bordercolor="#666666"
     borderopacity="1"
     objecttolerance="10"
     gridtolerance="10"
     guidetolerance="10"
     inkscape:pageopacity="0"
     inkscape:pageshadow="2"
     inkscape:window-width="1366"
     inkscape:window-height="715"
     id="namedview69"
     showgrid="false"
     inkscape:zoom="0.236"
     inkscape:cx="-205.50847"
     inkscape:cy="500"
     inkscape:window-x="-8"
     inkscape:window-y="-8"
     inkscape:window-maximized="1"
     inkscape:current-layer="svg67" />
  <g
     id="g3843"
     transform="matrix(0.99988424,0,0,0.99886382,0,-314.86382)">
    <path
       d="M 0.63690739,656.84133 C 0,844.61497 -0.15922681,998.60691 0.15922679,998.89939 0.79613419,999.6306 488.98565,1000.2156 725.59675,999.92308 L 893.10339,999.6306 V 657.42629 315.22198 H 447.42744 1.9107222 Z M 635.1559,319.60921 c 0,2.92483 -1.11459,2.92483 -43.78739,2.92483 -42.67279,0 -43.78738,0 -43.78738,-2.92483 0,-2.92482 1.11459,-2.92482 43.78738,-2.92482 42.6728,0 43.78739,0 43.78739,2.92482 z m 0,7.31206 c 0,2.92482 -1.11459,2.92482 -43.78739,2.92482 -42.67279,0 -43.78738,0 -43.78738,-2.92482 0,-2.92482 1.11459,-2.92482 43.78738,-2.92482 42.6728,0 43.78739,0 43.78739,2.92482 z m -508.72978,5.70341 c -1.75149,0.58496 -21.01794,1.02368 -42.672791,0.87744 -29.13852,-0.14624 -39.965946,0.29249 -41.080534,1.60866 -0.955361,1.02368 -1.433041,5.55716 -1.114587,10.23688 0.47768,7.89702 0.636907,8.33574 4.936032,8.77447 l 4.299125,0.43872 v -10.23688 c 0,-8.04326 0.47768,-10.09064 2.388402,-10.09064 1.910723,0 2.388403,2.04738 2.388403,9.9444 v 9.9444 h 15.922685 15.922691 v -9.9444 c 0,-7.89702 0.477681,-9.9444 2.388403,-9.9444 1.910722,0 2.388403,2.04738 2.388403,9.9444 v 9.9444 h 15.922688 15.92268 v -9.9444 c 0,-7.89702 0.47768,-9.9444 2.3884,-9.9444 1.91073,0 2.38841,2.4861 2.38841,13.89291 v 13.89291 H 74.836619 20.858717 L 20.69949,346.81007 20.540264,331.45475 h 54.614808 c 29.934658,0 53.022548,0.43872 51.271048,1.16993 z m 111.45879,0 c -1.75149,0.58496 -21.01794,1.02368 -42.67279,0.87744 -29.13852,-0.14624 -39.96594,0.29249 -41.08053,1.60866 -0.95536,1.02368 -1.43304,5.55716 -1.11459,10.23688 0.47768,7.89702 0.63691,8.33574 4.93603,8.77447 l 4.29913,0.43872 v -10.23688 c 0,-8.04326 0.47768,-10.09064 2.3884,-10.09064 1.91072,0 2.3884,2.04738 2.3884,9.9444 v 9.9444 h 15.92269 15.92268 v -9.9444 c 0,-7.89702 0.47768,-9.9444 2.38841,-9.9444 1.91072,0 2.3884,2.04738 2.3884,9.9444 v 9.9444 h 15.92268 15.92269 v -9.9444 c 0,-7.89702 0.47768,-9.9444 2.3884,-9.9444 1.91072,0 2.3884,2.4861 2.3884,13.89291 v 13.89291 h -53.9779 -53.97789 l -0.15923,-15.20908 -0.15923,-15.35532 h 54.61481 c 29.93464,0 53.02254,0.43872 51.27104,1.16993 z m 109.86653,0 c -1.7515,0.58496 -21.01795,1.02368 -42.6728,0.87744 -29.13851,-0.14624 -39.96594,0.29249 -41.08053,1.60866 -0.95536,1.02368 -1.43304,5.55716 -1.11458,10.23688 0.47768,7.89702 0.6369,8.33574 4.93603,8.77447 l 4.29912,0.43872 v -10.23688 c 0,-8.04326 0.47768,-10.09064 2.38841,-10.09064 1.91072,0 2.3884,2.04738 2.3884,9.9444 v 9.9444 h 15.92268 15.92269 v -9.9444 c 0,-7.89702 0.47768,-9.9444 2.3884,-9.9444 1.91072,0 2.3884,2.04738 2.3884,9.9444 v 9.9444 h 15.92269 15.92268 v -9.9444 c 0,-7.89702 0.47768,-9.9444 2.38841,-9.9444 1.91072,0 2.3884,2.4861 2.3884,13.89291 v 13.89291 h -54.13713 -54.13713 v -4.38724 -4.53347 l 4.77681,2.33986 c 7.96134,3.80227 9.07593,3.07106 11.78278,-8.33575 2.70686,-11.11433 2.54763,-11.99177 -3.82144,-13.45419 l -3.98067,-0.87744 3.98067,1.75489 c 2.22918,1.02369 4.1399,1.90114 4.45835,2.04738 0.63691,0.29248 -4.1399,18.28014 -5.09526,19.15759 -1.11459,1.02369 -7.00598,-1.02369 -9.71284,-3.36355 -1.59226,-1.60865 -2.3884,-5.26468 -2.3884,-11.55305 v -9.35943 h 54.61481 c 29.93465,0 53.02254,0.43872 51.27105,1.16993 z m 527.837,87.15973 v 88.4759 H 788.01367 700.4389 v 73.85178 73.85179 h 87.57477 87.57477 v 52.64682 52.64681 H 446.47208 17.355727 V 738.59013 715.92275 H 88.21168 159.06762 V 699.83623 683.7497 H 109.0704 59.073161 L 58.1178,677.46133 c -0.636908,-3.36355 -1.751496,-7.16582 -2.706857,-8.33575 -1.433041,-1.75489 -1.592268,-1.75489 -0.796134,0.43873 0.477681,1.46241 1.433042,5.26468 1.910722,8.48198 l 1.114588,5.70341 H 34.233773 10.986653 v -21.35121 -21.49745 l 6.209847,1.02369 c 3.50299,0.43872 7.165208,1.02369 8.439023,1.31617 1.114588,0.29248 0.47768,-0.14624 -1.592269,-1.02369 l -3.50299,-1.46241 4.299125,-1.90114 c 2.547629,-1.02368 3.184536,-1.60865 1.592268,-1.16993 -1.592268,0.43873 -5.732167,1.16993 -9.235157,1.60866 l -6.209847,1.02369 v -21.49746 -21.3512 h 23.24712 23.406346 l -1.114588,5.7034 c -0.47768,3.21731 -1.433041,7.01958 -1.910722,8.48199 -0.796134,2.33986 -0.636907,2.33986 0.796134,0.14624 0.955361,-1.31617 2.229176,-5.41092 2.706857,-9.06695 l 1.114588,-6.7271 H 39.010578 18.947995 V 585.76812 575.53124 H 184.54392 350.13984 v 40.21632 40.21632 h 8.75747 8.75748 V 493.63619 331.30851 H 621.62161 875.58844 Z M 47.608828,343.0078 c 0,6.87333 -0.477681,8.77447 -2.388403,8.77447 -1.751495,0 -2.388403,-1.90114 -2.388403,-7.75078 0,-4.38724 0.477681,-8.33575 1.114588,-8.77447 2.706857,-2.4861 3.662218,-0.29248 3.662218,7.75078 z m 15.604231,0.43872 c 0.318454,6.7271 0,8.33575 -2.069949,8.33575 -1.910722,0 -2.388403,-1.90114 -2.388403,-8.92071 0,-11.84554 3.821444,-11.26057 4.458352,0.58496 z m 6.687527,-0.58496 c 0,6.28837 -0.636907,8.77447 -2.388402,9.50567 -1.910722,0.58497 -2.388403,-0.87744 -2.388403,-8.62823 0,-7.45829 0.477681,-9.50567 2.388403,-9.50567 1.910722,0 2.388402,1.90113 2.388402,8.62823 z m 7.961343,0.87744 c 0,7.75079 -0.477681,9.2132 -2.388403,8.62823 -1.751495,-0.7312 -2.388403,-3.2173 -2.388403,-9.50567 0,-6.7271 0.477681,-8.62823 2.388403,-8.62823 1.910722,0 2.388403,2.04738 2.388403,9.50567 z m 6.36908,-0.7312 c 0,6.87333 -0.47768,8.77447 -2.388403,8.77447 -1.751495,0 -2.388402,-1.90114 -2.388402,-7.75078 0,-4.38724 0.47768,-8.33575 1.114588,-8.77447 2.706856,-2.4861 3.662217,-0.29248 3.662217,7.75078 z m 15.60423,0.43872 c 0.318451,6.7271 0,8.33575 -2.06995,8.33575 -1.91072,0 -2.3884,-1.90114 -2.3884,-8.92071 0,-11.84554 3.82144,-11.26057 4.45835,0.58496 z m 6.687531,-0.58496 c 0,6.28837 -0.63691,8.77447 -2.3884,9.50567 -1.91073,0.58497 -2.38841,-0.87744 -2.38841,-8.62823 0,-7.45829 0.47768,-9.50567 2.38841,-9.50567 1.91072,0 2.3884,1.90113 2.3884,8.62823 z m 7.96134,0.87744 c 0,7.75079 -0.47768,9.2132 -2.3884,8.62823 -1.7515,-0.7312 -2.3884,-3.2173 -2.3884,-9.50567 0,-6.7271 0.47768,-8.62823 2.3884,-8.62823 1.91072,0 2.3884,2.04738 2.3884,9.50567 z m 6.36908,-0.7312 c 0,6.87333 -0.47769,8.77447 -2.38841,8.77447 -1.75149,0 -2.3884,-1.90114 -2.3884,-7.75078 0,-4.38724 0.47768,-8.33575 1.11459,-8.77447 2.70685,-2.4861 3.66222,-0.29248 3.66222,7.75078 z m 38.21443,0 c 0,6.87333 -0.47768,8.77447 -2.3884,8.77447 -1.7515,0 -2.3884,-1.90114 -2.3884,-7.75078 0,-4.38724 0.47768,-8.33575 1.11458,-8.77447 2.70686,-2.4861 3.66222,-0.29248 3.66222,7.75078 z m 15.60423,0.43872 c 0.31846,6.7271 0,8.33575 -2.06995,8.33575 -1.91072,0 -2.3884,-1.90114 -2.3884,-8.92071 0,-11.84554 3.82144,-11.26057 4.45835,0.58496 z m 6.68753,-0.58496 c 0,6.28837 -0.63691,8.77447 -2.3884,9.50567 -1.91073,0.58497 -2.38841,-0.87744 -2.38841,-8.62823 0,-7.45829 0.47768,-9.50567 2.38841,-9.50567 1.91072,0 2.3884,1.90113 2.3884,8.62823 z m 7.96134,0.87744 c 0,7.75079 -0.47768,9.2132 -2.3884,8.62823 -1.7515,-0.7312 -2.3884,-3.2173 -2.3884,-9.50567 0,-6.7271 0.47768,-8.62823 2.3884,-8.62823 1.91072,0 2.3884,2.04738 2.3884,9.50567 z m 6.36908,-0.7312 c 0,6.87333 -0.47768,8.77447 -2.38841,8.77447 -1.75149,0 -2.3884,-1.90114 -2.3884,-7.75078 0,-4.38724 0.47768,-8.33575 1.11459,-8.77447 2.70685,-2.4861 3.66222,-0.29248 3.66222,7.75078 z m 15.60423,0.43872 c 0.31845,6.7271 0,8.33575 -2.06995,8.33575 -1.91072,0 -2.3884,-1.90114 -2.3884,-8.92071 0,-11.84554 3.82144,-11.26057 4.45835,0.58496 z m 6.68752,-0.58496 c 0,6.28837 -0.6369,8.77447 -2.3884,9.50567 -1.91072,0.58497 -2.3884,-0.87744 -2.3884,-8.62823 0,-7.45829 0.47768,-9.50567 2.3884,-9.50567 1.91072,0 2.3884,1.90113 2.3884,8.62823 z m 7.96135,0.87744 c 0,7.75079 -0.47768,9.2132 -2.38841,8.62823 -1.75149,-0.7312 -2.3884,-3.2173 -2.3884,-9.50567 0,-6.7271 0.47768,-8.62823 2.3884,-8.62823 1.91073,0 2.38841,2.04738 2.38841,9.50567 z m 6.36907,-0.7312 c 0,6.87333 -0.47768,8.77447 -2.3884,8.77447 -1.7515,0 -2.3884,-1.90114 -2.3884,-7.75078 0,-4.38724 0.47768,-8.33575 1.11458,-8.77447 2.70686,-2.4861 3.66222,-0.29248 3.66222,7.75078 z m 36.62218,0 c 0,6.87333 -0.47768,8.77447 -2.38841,8.77447 -1.75149,0 -2.3884,-1.90114 -2.3884,-7.75078 0,-4.38724 0.47768,-8.33575 1.11459,-8.77447 2.70685,-2.4861 3.66222,-0.29248 3.66222,7.75078 z m 15.60423,0.43872 c 0.31845,6.7271 0,8.33575 -2.06995,8.33575 -1.91072,0 -2.3884,-1.90114 -2.3884,-8.92071 0,-11.84554 3.82144,-11.26057 4.45835,0.58496 z m 6.68752,-0.58496 c 0,6.28837 -0.6369,8.77447 -2.3884,9.50567 -1.91072,0.58497 -2.3884,-0.87744 -2.3884,-8.62823 0,-7.45829 0.47768,-9.50567 2.3884,-9.50567 1.91072,0 2.3884,1.90113 2.3884,8.62823 z m 7.96135,0.87744 c 0,7.75079 -0.47768,9.2132 -2.38841,8.62823 -1.75149,-0.7312 -2.3884,-3.2173 -2.3884,-9.50567 0,-6.7271 0.47768,-8.62823 2.3884,-8.62823 1.91073,0 2.38841,2.04738 2.38841,9.50567 z m 6.36907,-0.7312 c 0,6.87333 -0.47768,8.77447 -2.3884,8.77447 -1.7515,0 -2.3884,-1.90114 -2.3884,-7.75078 0,-4.38724 0.47768,-8.33575 1.11458,-8.77447 2.70686,-2.4861 3.66222,-0.29248 3.66222,7.75078 z m 15.60423,0.43872 c 0.31846,6.7271 0,8.33575 -2.06995,8.33575 -1.91072,0 -2.3884,-1.90114 -2.3884,-8.92071 0,-11.84554 3.82144,-11.26057 4.45835,0.58496 z m 6.68753,-0.58496 c 0,6.28837 -0.63691,8.77447 -2.3884,9.50567 -1.91073,0.58497 -2.38841,-0.87744 -2.38841,-8.62823 0,-7.45829 0.47768,-9.50567 2.38841,-9.50567 1.91072,0 2.3884,1.90113 2.3884,8.62823 z m 7.96134,0.87744 c 0,7.75079 -0.47768,9.2132 -2.3884,8.62823 -1.7515,-0.7312 -2.3884,-3.2173 -2.3884,-9.50567 0,-6.7271 0.47768,-8.62823 2.3884,-8.62823 1.91072,0 2.3884,2.04738 2.3884,9.50567 z m 6.36908,-0.7312 c 0,6.87333 -0.47768,8.77447 -2.38841,8.77447 -1.75149,0 -2.3884,-1.90114 -2.3884,-7.75078 0,-4.38724 0.47768,-8.33575 1.11459,-8.77447 2.70685,-2.4861 3.66222,-0.29248 3.66222,7.75078 z m 7.96134,100.17519 v 79.70144 l -44.90197,0.29248 -45.0612,0.43872 -0.47768,17.84142 -0.47768,17.98766 H 234.8596 210.49789 L 209.3833,554.765 c -0.47768,-2.4861 -1.27381,-4.241 -1.75149,-3.80227 -0.47768,0.29248 0,2.92482 0.79613,5.7034 3.34377,10.52937 4.1399,10.09064 -21.49562,10.09064 h -23.08789 v -21.35121 -21.49745 l 6.20984,1.02369 c 3.50299,0.43872 7.64289,1.31617 9.23516,1.7549 2.54763,0.7312 2.54763,0.58496 0.15923,-0.73121 -1.43304,-0.87745 -5.8914,-2.04738 -9.87207,-2.4861 l -7.32443,-1.02369 v 18.57263 18.42638 H 90.600083 18.947995 V 461.46314 363.48156 H 184.54392 350.13984 Z m -81.20569,98.71279 v 17.54893 h -3.98068 -3.98067 v -17.54893 -17.54894 h 3.98067 3.98068 z m 36.30372,-3.36355 0.47768,13.60043 H 288.04137 270.52641 V 538.23975 524.2006 l 17.1965,0.43872 17.03728,0.43872 z m 35.34836,-0.29248 v 13.89291 h -16.71882 -16.71882 v -13.89291 -13.89291 h 16.71882 16.71882 z m 9.55361,3.65603 c 0,16.23276 -0.15923,17.54893 -3.02531,17.54893 -3.82145,0 -4.29913,-2.04737 -3.66222,-20.18128 0.47768,-13.60042 0.79613,-14.91659 3.66222,-14.91659 2.86608,0 3.02531,1.16993 3.02531,17.54894 z m 525.4486,40.21631 v 57.76526 h -40.44362 -40.2844 l -1.11458,-4.67972 c -0.47768,-2.4861 -1.27382,-4.24099 -1.7515,-3.80227 -0.47768,0.29249 0,2.92483 0.79614,5.70341 3.34376,10.52936 4.13989,10.09064 -21.49563,10.09064 H 748.20696 V 625.8382 604.34075 l 6.20985,1.02369 c 3.50299,0.43872 7.64288,1.31617 9.23515,1.75489 2.54763,0.73121 2.54763,0.58497 0.15923,-0.7312 -1.43304,-0.87745 -5.89139,-2.04738 -9.87207,-2.4861 l -7.32443,-1.02369 v 18.57263 18.42638 h -14.33042 -14.33041 v -57.76526 -57.76525 h 78.81729 78.81729 z M 340.58623,556.81237 c 0,2.4861 -2.70686,2.63234 -35.02991,2.63234 -32.32305,0 -35.02991,-0.14624 -35.02991,-2.63234 0,-2.33985 2.70686,-2.4861 35.02991,-2.4861 32.32305,0 35.02991,0.14625 35.02991,2.4861 z m -130.56602,14.33164 c 0,2.77858 -1.11459,2.92482 -23.08789,2.92482 -21.97331,0 -23.08789,-0.14624 -23.08789,-2.92482 0,-2.77858 1.11458,-2.92483 23.08789,-2.92483 21.9733,0 23.08789,0.14625 23.08789,2.92483 z M 9.3943844,618.67238 c 0,20.18128 -0.159227,21.20497 -3.184537,21.20497 -3.0253104,0 -3.1845373,-1.02369 -3.1845373,-21.20497 0,-20.18128 0.1592269,-21.20496 3.1845373,-21.20496 3.02531,0 3.184537,1.02368 3.184537,21.20496 z m 0,43.87235 c 0,20.18128 -0.159227,21.20497 -3.184537,21.20497 -3.0253104,0 -3.1845373,-1.02369 -3.1845373,-21.20497 0,-20.18128 0.1592269,-21.20497 3.1845373,-21.20497 3.02531,0 3.184537,1.02369 3.184537,21.20497 z M 794.38274,651.57664 c 0,2.77859 -1.11458,2.92483 -23.08789,2.92483 -21.9733,0 -23.08789,-0.14624 -23.08789,-2.92483 0,-2.77858 1.11459,-2.92482 23.08789,-2.92482 21.97331,0 23.08789,0.14624 23.08789,2.92482 z m -636.90739,48.25959 v 14.62411 H 87.415546 17.355727 v -14.62411 -14.62412 h 70.059819 70.059804 z m 42.99125,65.80852 c 0,2.77858 -1.11459,2.92482 -23.08789,2.92482 -21.97331,0 -23.08789,-0.14624 -23.08789,-2.92482 0,-2.77858 1.11458,-2.92483 23.08789,-2.92483 21.9733,0 23.08789,0.14625 23.08789,2.92483 z m 224.50986,0 c 0,2.77858 -1.11459,2.92482 -23.0879,2.92482 -21.9733,0 -23.08789,-0.14624 -23.08789,-2.92482 0,-2.77858 1.11459,-2.92483 23.08789,-2.92483 21.97331,0 23.0879,0.14625 23.0879,2.92483 z m 222.91758,0 c 0,2.77858 -1.11458,2.92482 -23.08789,2.92482 -21.9733,0 -23.08789,-0.14624 -23.08789,-2.92482 0,-2.77858 1.11459,-2.92483 23.08789,-2.92483 21.97331,0 23.08789,0.14625 23.08789,2.92483 z m 205.40264,0 c 0,2.77858 -1.11459,2.92482 -23.0879,2.92482 -21.9733,0 -23.08789,-0.14624 -23.08789,-2.92482 0,-2.77858 1.11459,-2.92483 23.08789,-2.92483 21.97331,0 23.0879,0.14625 23.0879,2.92483 z M 200.4666,791.38319 v 21.49745 l -6.20985,-1.02369 c -3.50299,-0.43872 -7.64288,-1.31617 -9.23515,-1.75489 -2.54763,-0.73121 -2.54763,-0.58497 -0.15923,0.73121 1.43304,0.87744 5.89139,2.04737 9.87206,2.4861 l 7.32444,1.02368 v -18.57262 -18.42639 h 11.14588 11.14588 V 880.44406 983.54407 H 120.85319 17.355727 V 880.44406 777.34404 h 68.308324 68.308309 l 0.95536,4.67972 c 0.47768,2.4861 1.27382,4.24099 1.7515,3.80227 0.47768,-0.29249 0,-2.92483 -0.79614,-5.70341 -3.34376,-10.52936 -4.13989,-10.09064 21.49563,-10.09064 h 23.08789 z m 224.50986,0 v 21.49745 l -6.20985,-1.02369 c -3.50299,-0.43872 -7.64289,-1.31617 -9.23516,-1.75489 -2.54763,-0.73121 -2.54763,-0.58497 -0.15922,0.73121 1.43304,0.87744 5.89139,2.04737 9.87206,2.4861 l 7.32444,1.02368 v -18.57262 -18.42639 h 11.14587 11.14588 V 880.44406 983.54407 H 345.36303 241.86558 V 880.44406 777.34404 h 68.30832 68.30832 l 0.95536,4.67972 c 0.47768,2.4861 1.27381,4.24099 1.75149,3.80227 0.47768,-0.29249 0,-2.92483 -0.79613,-5.70341 -3.34376,-10.52936 -4.1399,-10.09064 21.49562,-10.09064 h 23.0879 z m 222.91758,0 v 21.49745 l -6.20984,-1.02369 c -3.50299,-0.43872 -7.64289,-1.31617 -9.23516,-1.75489 -2.54763,-0.73121 -2.54763,-0.58497 -0.15923,0.73121 1.43304,0.87744 5.8914,2.04737 9.87207,2.4861 l 7.32443,1.02368 v -18.57262 -18.42639 h 11.14588 11.14588 V 880.44406 983.54407 H 569.07675 466.37544 V 880.44406 777.34404 h 67.51218 67.51218 l 0.95537,4.67972 c 0.47768,2.4861 1.27381,4.24099 1.75149,3.80227 0.47768,-0.29249 0,-2.92483 -0.79613,-5.70341 -3.34377,-10.52936 -4.1399,-10.09064 21.49562,-10.09064 h 23.08789 z m 205.40264,0 v 21.49745 l -6.20985,-1.02369 c -3.50299,-0.43872 -7.64289,-1.31617 -9.23516,-1.75489 -2.54763,-0.73121 -2.54763,-0.58497 -0.15922,0.73121 1.43304,0.87744 5.89139,2.04737 9.87206,2.4861 l 7.32444,1.02368 v -18.57262 -18.42639 h 10.34974 10.34975 V 880.44406 983.54407 H 782.44073 689.29302 V 880.44406 777.34404 h 58.75471 58.75471 l 0.95536,4.67972 c 0.47768,2.4861 1.27381,4.24099 1.75149,3.80227 0.47769,-0.29249 0,-2.92483 -0.79613,-5.70341 -3.34376,-10.52936 -4.1399,-10.09064 21.49562,-10.09064 h 23.0879 z M 7.8021164,878.25044 c 0,36.99901 -0.159227,38.0227 -3.184538,38.0227 -3.0253099,0 -3.1845368,-1.02369 -3.1845368,-38.0227 0,-36.99901 0.1592269,-38.0227 3.1845368,-38.0227 3.025311,0 3.184538,1.02369 3.184538,38.0227 z m 7.9613416,0 c 0,36.99901 -0.159227,38.0227 -3.184537,38.0227 -3.0253096,0 -3.1845366,-1.02369 -3.1845366,-38.0227 0,-36.99901 0.159227,-38.0227 3.1845366,-38.0227 3.02531,0 3.184537,1.02369 3.184537,38.0227 z M 335.80942,989.39372 c 0,2.77858 -1.11459,2.92482 -41.39898,2.92482 -40.28439,0 -41.39898,-0.14624 -41.39898,-2.92482 0,-2.77858 1.11459,-2.92482 41.39898,-2.92482 40.28439,0 41.39898,0.14624 41.39898,2.92482 z m 222.91759,0 c 0,2.77858 -1.11459,2.92482 -41.39898,2.92482 -40.28439,0 -41.39898,-0.14624 -41.39898,-2.92482 0,-2.77858 1.11459,-2.92482 41.39898,-2.92482 40.28439,0 41.39898,0.14624 41.39898,2.92482 z m -222.91759,7.31206 c 0,2.77858 -1.11459,2.92482 -41.39898,2.92482 -40.28439,0 -41.39898,-0.14624 -41.39898,-2.92482 0,-2.77858 1.11459,-2.92483 41.39898,-2.92483 40.28439,0 41.39898,0.14625 41.39898,2.92483 z m 222.91759,0 c 0,2.77858 -1.11459,2.92482 -41.39898,2.92482 -40.28439,0 -41.39898,-0.14624 -41.39898,-2.92482 0,-2.77858 1.11459,-2.92483 41.39898,-2.92483 40.28439,0 41.39898,0.14625 41.39898,2.92483 z"
       id="path12"
       style="fill:#000000;stroke:none;stroke-width:0.15259594"
       inkscape:connector-curvature="0" />
    <path
       d="m 23.724801,340.81418 c -0.955362,4.53348 -1.592269,8.62823 -1.114588,8.92071 0.318453,0.29248 1.433041,-3.07106 2.547629,-7.60454 0.955361,-4.67972 1.433042,-8.62823 1.114588,-8.92071 -0.318454,-0.43872 -1.592268,3.07107 -2.547629,7.60454 z"
       id="path14"
       style="fill:#000000;stroke:none;stroke-width:0.15259594"
       inkscape:connector-curvature="0" />
    <path
       d="m 33.278411,334.52581 c 2.229176,1.02369 4.139899,1.90114 4.458352,2.04738 0.318454,0.14624 -0.159227,2.77858 -0.955361,5.84964 -0.955361,3.21731 -2.069949,7.60454 -2.547629,9.9444 -1.114588,4.241 -1.433042,4.241 -9.712838,1.60866 -2.069949,-0.58497 -1.910722,-0.14625 0.796134,1.31617 7.483662,4.24099 9.07593,3.2173 11.782787,-8.18951 2.706856,-11.11433 2.547629,-11.99177 -3.821445,-13.45419 l -3.980671,-0.87744 z"
       id="path16"
       style="fill:#000000;stroke:none;stroke-width:0.15259594"
       inkscape:connector-curvature="0" />
    <path
       d="m 135.1836,340.81418 c -0.95536,4.53348 -1.59227,8.62823 -1.11459,8.92071 0.31846,0.29248 1.43305,-3.07106 2.54763,-7.60454 0.95536,-4.67972 1.43304,-8.62823 1.11459,-8.92071 -0.31845,-0.43872 -1.59227,3.07107 -2.54763,7.60454 z"
       id="path18"
       style="fill:#000000;stroke:none;stroke-width:0.15259594"
       inkscape:connector-curvature="0" />
    <path
       d="m 144.73721,334.52581 c 2.22918,1.02369 4.13989,1.90114 4.45835,2.04738 0.31845,0.14624 -0.15923,2.77858 -0.95536,5.84964 -0.95536,3.21731 -2.06995,7.60454 -2.54763,9.9444 -1.11458,4.241 -1.43304,4.241 -9.71283,1.60866 -2.06995,-0.58497 -1.91073,-0.14625 0.79613,1.31617 7.48366,4.24099 9.07593,3.2173 11.78279,-8.18951 2.70685,-11.11433 2.54762,-11.99177 -3.82145,-13.45419 l -3.98067,-0.87744 z"
       id="path20"
       style="fill:#000000;stroke:none;stroke-width:0.15259594"
       inkscape:connector-curvature="0" />
    <path
       d="m 245.05012,340.81418 c -0.95536,4.53348 -1.59227,8.62823 -1.11459,8.92071 0.31845,0.29248 1.43304,-3.07106 2.54763,-7.60454 0.95536,-4.67972 1.43304,-8.62823 1.11459,-8.92071 -0.31846,-0.43872 -1.59227,3.07107 -2.54763,7.60454 z"
       id="path22"
       style="fill:#000000;stroke:none;stroke-width:0.15259594"
       inkscape:connector-curvature="0" />
    <path
       d="m 452.68193,336.13446 c -0.31846,1.02369 -0.47768,9.50568 -0.31846,18.71887 l 0.47769,16.67149 h 45.37965 45.37965 v -18.28014 -18.28014 l -45.0612,-0.43873 c -36.14449,-0.29248 -45.22042,0 -45.85733,1.60865 z m 7.48366,2.04738 c 0.31845,1.46241 0.47768,9.35943 0.15923,17.54894 -0.47768,13.74667 -0.79614,15.06284 -3.66222,15.06284 -2.86608,0 -3.02531,-1.16993 -3.02531,-17.54894 0,-16.23277 0.15923,-17.54894 3.02531,-17.54894 1.59227,0 3.18454,1.16993 3.50299,2.4861 z m 73.08512,-0.43872 c 0,1.75489 -3.50299,2.19361 -17.51495,2.63234 -31.68614,0.87744 -52.54486,-0.14624 -52.54486,-2.63234 0,-1.7549 5.57294,-2.04738 35.02991,-2.04738 29.45696,0 35.0299,0.29248 35.0299,2.04738 z m 9.55361,15.50156 v 17.54894 h -3.98067 -3.98067 v -17.54894 -17.54894 h 3.98067 3.98067 z m -46.17578,3.65603 v 13.89291 H 479.90972 463.1909 V 356.90071 343.0078 h 16.71882 16.71882 z m 36.62217,0 v 13.89291 H 516.69112 499.9723 l -0.47768,-13.89291 -0.47768,-13.89291 h 17.1965 17.03727 z"
       id="path24"
       style="fill:#000000;stroke:none;stroke-width:0.15259594"
       inkscape:connector-curvature="0" />
    <path
       d="m 642.16188,336.13446 c -0.31846,1.02369 -0.47768,9.50568 -0.31846,18.71887 l 0.47768,16.67149 h 45.37966 45.37965 v -18.28014 -18.28014 l -45.0612,-0.43873 c -36.14449,-0.29248 -45.22043,0 -45.85733,1.60865 z m 7.48366,2.04738 c 0.31845,1.46241 0.47768,9.35943 0.15923,17.54894 -0.47768,13.74667 -0.79614,15.06284 -3.66222,15.06284 -2.86608,0 -3.02531,-1.16993 -3.02531,-17.54894 0,-16.23277 0.15923,-17.54894 3.02531,-17.54894 1.59227,0 3.18454,1.16993 3.50299,2.4861 z m 73.08512,-0.43872 c 0,1.75489 -3.50299,2.19361 -17.51495,2.63234 -31.68614,0.87744 -52.54486,-0.14624 -52.54486,-2.63234 0,-1.7549 5.57294,-2.04738 35.02991,-2.04738 29.45696,0 35.0299,0.29248 35.0299,2.04738 z m 9.55361,15.50156 v 17.54894 h -3.98067 -3.98067 v -17.54894 -17.54894 h 3.98067 3.98067 z m -46.17578,3.65603 v 13.89291 H 669.38967 652.67085 V 356.90071 343.0078 h 16.71882 16.71882 z m 36.62217,0 v 13.89291 h -16.55959 -16.71882 l -0.47768,-13.89291 -0.47768,-13.89291 h 17.1965 17.03727 z"
       id="path26"
       style="fill:#000000;stroke:none;stroke-width:0.15259594"
       inkscape:connector-curvature="0" />
    <path
       d="m 736.10572,336.13446 c -0.31846,1.02369 -0.47768,9.50568 -0.31846,18.71887 l 0.47768,16.67149 h 45.37966 45.37965 v -18.28014 -18.28014 l -45.0612,-0.43873 c -36.14449,-0.29248 -45.22042,0 -45.85733,1.60865 z m 7.48366,2.04738 c 0.31845,1.46241 0.47768,9.35943 0.15923,17.54894 -0.47768,13.74667 -0.79614,15.06284 -3.66222,15.06284 -2.86608,0 -3.02531,-1.16993 -3.02531,-17.54894 0,-16.23277 0.15923,-17.54894 3.02531,-17.54894 1.59227,0 3.18454,1.16993 3.50299,2.4861 z m 73.08512,-0.43872 c 0,1.75489 -3.50299,2.19361 -17.51495,2.63234 -31.68614,0.87744 -52.54486,-0.14624 -52.54486,-2.63234 0,-1.7549 5.57294,-2.04738 35.02991,-2.04738 29.45696,0 35.0299,0.29248 35.0299,2.04738 z m 9.55361,15.50156 v 17.54894 h -3.98067 -3.98067 v -17.54894 -17.54894 h 3.98067 3.98067 z m -46.17578,3.65603 v 13.89291 H 763.33351 746.61469 V 356.90071 343.0078 h 16.71882 16.71882 z m 36.62217,0 v 13.89291 h -16.55959 -16.71882 l -0.47768,-13.89291 -0.47768,-13.89291 h 17.1965 17.03727 z"
       id="path28"
       style="fill:#000000;stroke:none;stroke-width:0.15259594"
       inkscape:connector-curvature="0" />
    <path
       d="m 370.83933,354.70709 v 19.01135 h 39.01058 39.01057 v -19.01135 -19.01135 h -39.01057 -39.01058 z m 76.42889,0 v 17.54894 H 409.84991 372.4316 l 0.15922,-17.54894 0.15923,-17.54894 h 37.25908 37.25909 z"
       id="path30"
       style="fill:#000000;stroke:none;stroke-width:0.15259594"
       inkscape:connector-curvature="0" />
    <path
       d="m 385.64743,342.71532 c -0.79614,2.77858 -1.7515,3.2173 -6.68753,2.4861 l -5.73217,-0.73121 5.57294,1.60865 c 3.02531,0.87745 6.05062,2.33986 6.68753,3.21731 0.63691,1.02369 1.27381,-0.58497 1.27381,-3.36355 0.15923,-4.82596 0.31846,-4.9722 2.38841,-2.33986 1.59226,2.04738 1.75149,3.50979 0.6369,5.55717 -2.54763,4.38723 -6.05062,4.82596 -11.14588,1.31617 -5.41371,-3.80227 -6.05062,-2.92483 -1.11458,1.31617 3.02531,2.4861 3.34376,3.50979 1.59226,5.84964 -3.18453,4.67972 -2.3884,6.28837 2.70686,5.41093 3.66222,-0.73121 4.77681,-0.29248 5.41371,1.90113 0.47768,1.60866 2.06995,2.92483 3.50299,2.92483 1.43305,0 3.02531,-1.31617 3.503,-2.92483 0.6369,-2.19361 1.75149,-2.63234 5.25448,-2.04737 5.57294,1.16993 7.32444,-1.46242 4.1399,-5.84965 -2.22918,-3.21731 -2.06995,-3.65603 0.63691,-5.99589 1.75149,-1.46241 3.18453,-3.36354 3.18453,-4.24099 0,-0.87745 -0.79613,-0.43872 -1.75149,1.02369 -1.59227,2.33986 -10.6682,7.60454 -11.78279,6.58085 -1.11459,-1.02369 3.66222,-5.55716 7.32444,-7.01958 3.18453,-1.16993 3.34376,-1.46241 0.6369,-1.16993 -3.98067,0.14625 -8.59825,-1.46241 -12.41969,-4.38723 -2.54763,-2.19362 -2.86608,-2.04738 -3.82144,0.87745 z m 10.66819,4.53347 c 0,0.73121 -1.43304,2.77858 -3.18453,4.67972 -3.34377,3.80227 -4.29913,1.60865 -1.59227,-3.21731 1.75149,-2.77858 4.7768,-3.80227 4.7768,-1.46241 z m -9.07593,8.48199 c 1.43305,1.31617 -3.50299,6.28837 -6.36907,6.28837 -2.70686,0 -2.70686,-1.46241 0.63691,-4.67972 2.70685,-2.77858 4.1399,-3.2173 5.73216,-1.60865 z m 15.44501,1.75489 c 0.79613,1.60866 1.59227,3.21731 1.59227,3.65603 0,1.7549 -5.41372,0.73121 -8.2798,-1.60865 -2.70686,-2.19362 -2.86608,-2.04738 -2.86608,2.19362 0,3.2173 -0.79614,4.67971 -2.54763,4.67971 -3.66222,0 -2.38841,-9.06695 1.43304,-9.65191 1.75149,-0.14624 3.34376,-0.73121 3.98067,-1.16993 1.7515,-1.7549 5.09526,-0.73121 6.68753,1.90113 z"
       id="path32"
       style="fill:#000000;stroke:none;stroke-width:0.15259594"
       inkscape:connector-curvature="0" />
    <path
       d="m 831.00492,371.52482 v 35.97533 l 20.38104,-0.43872 20.22181,-0.43873 0.47768,-35.5366 0.31845,-35.39036 h -20.69949 -20.69949 z m 39.48826,-0.43872 -0.47768,34.07419 -18.62954,0.43872 -18.78877,0.43873 v -29.39447 c 0,-21.05873 0.47768,-29.102 1.75149,-28.37079 1.27382,0.73121 1.27382,0.14624 0,-2.04738 -0.95536,-1.60865 -1.75149,-4.38723 -1.75149,-5.99588 0,-2.92483 0.79613,-3.07107 19.10722,-3.07107 h 19.10722 z"
       id="path34"
       style="fill:#000000;stroke:none;stroke-width:0.15259594"
       inkscape:connector-curvature="0" />
    <path
       d="m 844.22075,342.86156 c -0.47768,1.90113 -1.7515,2.4861 -4.1399,2.19361 l -3.50299,-0.7312 3.50299,1.46241 c 1.91072,0.73121 4.1399,2.63234 5.09526,4.09475 1.27381,2.04738 1.43304,1.31617 0.63691,-2.92482 -0.95537,-5.84965 2.22917,-8.04326 3.82144,-2.4861 0.79613,2.4861 1.27382,2.63234 3.34376,1.16993 2.06995,-1.60865 2.38841,-1.46241 1.27382,1.75489 -0.63691,2.04738 -1.27382,4.38724 -1.27382,5.41093 -0.31845,2.63234 -2.86608,0.7312 -2.86608,-2.19362 0,-1.90114 -0.31845,-1.90114 -2.22917,0.43872 -1.91073,2.4861 -2.70686,2.63234 -6.36908,1.02369 -3.82144,-1.60865 -4.1399,-1.46241 -2.86608,0.73121 1.11459,1.75489 0.79613,3.50978 -0.79614,5.7034 -2.70685,3.80227 -0.47768,5.84965 4.1399,3.65603 2.3884,-1.31617 3.18454,-1.02369 3.82145,1.31617 1.11458,3.80227 5.89139,3.80227 7.00598,-0.14624 0.47768,-1.75489 1.75149,-2.63234 3.02531,-2.19362 1.27381,0.43873 3.34376,1.31617 4.61758,1.7549 3.18453,1.16993 4.93603,-3.50979 2.54763,-7.01958 -1.59227,-2.33986 -1.43305,-3.36355 0.47768,-5.41092 4.13989,-4.241 3.18453,-6.43461 -2.22918,-5.55717 -2.54763,0.58497 -5.09526,0.29249 -5.57294,-0.43872 -0.63691,-0.87745 -1.59227,-1.16993 -2.3884,-0.73121 -0.63691,0.43873 -2.06995,-0.29248 -3.18454,-1.46241 -2.70686,-2.92482 -4.93603,-2.77858 -5.89139,0.58497 z m 20.22181,4.53347 c 0,1.90114 -7.48366,6.28837 -9.55361,5.55717 -2.22918,-0.58497 4.29912,-7.01958 7.1652,-7.01958 1.27382,0 2.38841,0.58497 2.38841,1.46241 z m -1.59227,11.84554 c 0,3.36354 -1.43304,3.50979 -6.05062,0.43872 -4.29913,-2.63234 -4.45835,-4.53348 -0.63691,-5.26468 3.66222,-0.87745 6.68753,1.46241 6.68753,4.82596 z m -13.69351,-3.65603 c 3.50299,1.16993 3.50299,9.35943 0,9.35943 -1.91072,0 -2.3884,-1.02369 -1.91072,-4.24099 l 0.63691,-4.24099 -4.45836,3.07106 c -5.25448,3.65603 -7.00598,2.77858 -3.50299,-1.60865 2.54763,-3.36355 4.77681,-3.94851 9.23516,-2.33986 z"
       id="path36"
       style="fill:#000000;stroke:none;stroke-width:0.15259594"
       inkscape:connector-curvature="0" />
    <path
       d="m 371.63546,379.86057 c -0.47768,1.02369 -0.6369,20.03504 -0.47768,42.11745 l 0.47768,40.21632 h 19.90336 19.90335 v -41.67873 -41.67873 l -19.5849,-0.43872 c -14.80809,-0.29248 -19.74413,0 -20.22181,1.46241 z m 39.01058,3.36355 v 3.65603 H 391.53882 372.4316 v -3.65603 -3.65603 h 19.10722 19.10722 z m -33.11918,21.20497 c 0.95536,29.10199 -0.15923,48.25958 -2.86609,48.25958 -1.91072,0 -2.22917,-5.11844 -2.22917,-32.17306 0,-27.05461 0.31845,-32.17305 2.22917,-32.17305 1.91073,0 2.38841,3.2173 2.86609,16.08653 z m 32.80073,-0.43873 -0.47768,15.79405 -14.64887,0.43872 -14.8081,0.43872 v -16.23276 -16.08653 h 15.12655 15.28578 z m 0.31845,33.34299 v 15.35532 h -15.12655 -15.12655 v -15.35532 -15.35533 h 15.12655 15.12655 z m -14.17119,18.28014 c 13.0566,0 14.17119,0.14624 14.17119,2.92483 0,2.77858 -1.11459,2.92482 -19.10722,2.92482 -17.83341,0 -19.10722,-0.14624 -19.10722,-2.77858 0,-2.92483 3.82144,-4.67972 7.64289,-3.65603 1.27381,0.29248 8.59825,0.58496 16.40036,0.58496 z"
       id="path38"
       style="fill:#000000;stroke:none;stroke-width:0.15259594"
       inkscape:connector-curvature="0" />
    <path
       d="m 444.40213,400.33433 c -2.70685,2.4861 -2.70685,42.2637 0,44.7498 1.11459,1.02369 6.5283,1.75489 13.21583,1.75489 6.68753,0 12.10124,-0.7312 13.21583,-1.75489 1.27381,-1.16993 1.91072,-8.33575 1.91072,-22.3749 0,-14.03915 -0.63691,-21.20497 -1.91072,-22.3749 -2.54763,-2.33986 -23.88403,-2.33986 -26.43166,0 z m 25.95398,22.3749 v 21.93617 h -12.73815 -12.73815 l -0.47768,-20.47376 c -0.15922,-11.11433 0,-21.20497 0.47768,-22.22865 0.47768,-1.46242 3.98067,-1.90114 13.0566,-1.60866 l 12.4197,0.43873 z"
       id="path40"
       style="fill:#000000;stroke:none;stroke-width:0.15259594"
       inkscape:connector-curvature="0" />
    <path
       d="m 371.63546,469.06768 c -0.47768,1.02369 -0.6369,20.03504 -0.47768,42.11745 l 0.47768,40.21632 h 19.90336 19.90335 v -41.67873 -41.67873 l -19.5849,-0.43872 c -14.80809,-0.29248 -19.74413,0 -20.22181,1.46241 z m 39.01058,3.36355 v 3.65602 H 391.53882 372.4316 v -3.65602 -3.65603 h 19.10722 19.10722 z m -33.11918,21.20496 c 0.95536,29.10199 -0.15923,48.25959 -2.86609,48.25959 -1.91072,0 -2.22917,-5.11844 -2.22917,-32.17306 0,-27.05461 0.31845,-32.17305 2.22917,-32.17305 1.91073,0 2.38841,3.2173 2.86609,16.08652 z m 32.80073,-0.43872 -0.47768,15.79405 -14.64887,0.43872 -14.8081,0.43872 v -16.23277 -16.08652 h 15.12655 15.28578 z m 0.31845,33.34298 v 15.35533 h -15.12655 -15.12655 v -15.35533 -15.35532 h 15.12655 15.12655 z m -14.17119,18.28015 c 13.0566,0 14.17119,0.14624 14.17119,2.92482 0,2.77858 -1.11459,2.92483 -19.10722,2.92483 -17.83341,0 -19.10722,-0.14625 -19.10722,-2.77859 0,-2.92482 3.82144,-4.67971 7.64289,-3.65603 1.27381,0.29249 8.59825,0.58497 16.40036,0.58497 z"
       id="path42"
       style="fill:#000000;stroke:none;stroke-width:0.15259594"
       inkscape:connector-curvature="0" />
    <path
       d="m 657.44765,486.32414 v 19.01135 H 764.12964 870.81163 V 486.32414 467.31279 H 764.12964 657.44765 Z m 211.77171,0 v 17.54893 H 764.12964 659.03992 V 486.32414 468.7752 h 105.08972 105.08972 z"
       id="path44"
       style="fill:#000000;stroke:none;stroke-width:0.15259594"
       inkscape:connector-curvature="0" />
    <path
       d="m 444.40213,486.61662 c -2.70685,2.4861 -2.70685,42.26369 0,44.74979 1.11459,1.02369 6.5283,1.7549 13.21583,1.7549 6.68753,0 12.10124,-0.73121 13.21583,-1.7549 1.27381,-1.16993 1.91072,-8.33574 1.91072,-22.37489 0,-14.03916 -0.63691,-21.20497 -1.91072,-22.3749 -2.54763,-2.33986 -23.88403,-2.33986 -26.43166,0 z m 25.95398,22.3749 v 21.93617 h -12.73815 -12.73815 l -0.47768,-20.47376 c -0.15922,-11.11433 0,-21.20497 0.47768,-22.22866 0.47768,-1.46241 3.98067,-1.90113 13.0566,-1.60865 l 12.4197,0.43872 z"
       id="path46"
       style="fill:#000000;stroke:none;stroke-width:0.15259594"
       inkscape:connector-curvature="0" />
    <path
       d="m 657.44765,583.57451 v 75.31419 h 20.6995 20.69949 v -75.31419 -75.3142 h -20.69949 -20.6995 z m 39.80672,0 v 73.85178 h -19.10722 -19.10723 v -73.85178 -73.85179 h 19.10723 19.10722 z"
       id="path48"
       style="fill:#000000;stroke:none;stroke-width:0.15259594"
       inkscape:connector-curvature="0" />
    <path
       d="m 676.55488,582.8433 c 0,41.24001 0.15922,44.01859 2.86608,43.57987 3.82144,-0.58497 5.57294,-14.62412 5.57294,-43.57987 0,-28.95575 -1.7515,-42.9949 -5.57294,-43.57987 -2.70686,-0.43872 -2.86608,2.33986 -2.86608,43.57987 z m 3.98067,0 c 0,23.25234 -0.47768,42.40994 -1.11459,42.40994 -0.79613,0 -1.27381,-19.1576 -1.27381,-42.40994 0,-23.39859 0.47768,-42.40994 1.27381,-42.40994 0.63691,0 1.11459,19.01135 1.11459,42.40994 z m 3.50299,-12.13802 c -0.31846,2.33986 -0.63691,0.73121 -0.63691,-3.2173 0,-4.09475 0.31845,-5.84965 0.63691,-4.09475 0.31845,1.90113 0.31845,5.11844 0,7.31205 z m 0,30.71065 c -0.31846,2.33986 -0.63691,0.7312 -0.63691,-3.21731 0,-4.09475 0.31845,-5.84964 0.63691,-4.09475 0.31845,1.90113 0.31845,5.11844 0,7.31206 z"
       id="path50"
       style="fill:#000000;stroke:none;stroke-width:0.15259594"
       inkscape:connector-curvature="0" />
    <path
       d="m 371.63546,558.27479 c -0.47768,1.02368 -0.6369,20.03503 -0.47768,42.11745 l 0.47768,40.21632 h 19.90336 19.90335 V 598.92983 557.2511 l -19.5849,-0.43873 c -14.80809,-0.29248 -19.74413,0 -20.22181,1.46242 z m 39.01058,3.36354 v 3.65603 H 391.53882 372.4316 v -3.65603 -3.65603 h 19.10722 19.10722 z m -33.11918,21.20497 c 0.95536,29.10199 -0.15923,48.25958 -2.86609,48.25958 -1.91072,0 -2.22917,-5.11844 -2.22917,-32.17305 0,-27.05462 0.31845,-32.17306 2.22917,-32.17306 1.91073,0 2.38841,3.21731 2.86609,16.08653 z m 32.80073,-0.43872 -0.47768,15.79404 -14.64887,0.43872 -14.8081,0.43873 V 582.8433 566.75677 h 15.12655 15.28578 z m 0.31845,33.34298 v 15.35532 h -15.12655 -15.12655 v -15.35532 -15.35532 h 15.12655 15.12655 z m -14.17119,18.28015 c 13.0566,0 14.17119,0.14624 14.17119,2.92482 0,2.77858 -1.11459,2.92482 -19.10722,2.92482 -17.83341,0 -19.10722,-0.14624 -19.10722,-2.77858 0,-2.92482 3.82144,-4.67972 7.64289,-3.65603 1.27381,0.29248 8.59825,0.58497 16.40036,0.58497 z"
       id="path52"
       style="fill:#000000;stroke:none;stroke-width:0.15259594"
       inkscape:connector-curvature="0" />
    <path
       d="m 444.40213,574.36131 c -2.70685,2.4861 -2.70685,42.2637 0,44.7498 1.11459,1.02369 6.5283,1.75489 13.21583,1.75489 6.68753,0 12.10124,-0.7312 13.21583,-1.75489 1.27381,-1.16993 1.91072,-8.33575 1.91072,-22.3749 0,-14.03915 -0.63691,-21.20497 -1.91072,-22.3749 -2.54763,-2.33986 -23.88403,-2.33986 -26.43166,0 z m 25.95398,22.3749 v 21.93617 h -12.73815 -12.73815 l -0.47768,-20.47376 c -0.15922,-11.11433 0,-21.20497 0.47768,-22.22865 0.47768,-1.46242 3.98067,-1.90114 13.0566,-1.60866 l 12.4197,0.43873 z"
       id="path54"
       style="fill:#000000;stroke:none;stroke-width:0.15259594"
       inkscape:connector-curvature="0" />
    <path
       d="m 42.513569,626.86189 c -4.936033,4.67972 -7.802116,8.04326 -6.209847,7.31206 2.866083,-1.46242 16.081911,-14.1854 16.081911,-15.50157 0,-1.16993 -0.159227,-1.02368 -9.872064,8.18951 z"
       id="path56"
       style="fill:#000000;stroke:none;stroke-width:0.15259594"
       inkscape:connector-curvature="0" />
    <path
       d="m 37.577536,649.52927 c 2.866084,1.90113 7.324435,6.14213 10.190519,9.06695 2.706856,2.92482 4.139898,4.09475 3.343763,2.33986 C 49.201096,657.71877 35.666814,645.727 33.756092,645.727 c -0.796134,0 0.955361,1.75489 3.821444,3.80227 z"
       id="path58"
       style="fill:#000000;stroke:none;stroke-width:0.15259594"
       inkscape:connector-curvature="0" />
    <path
       d="m 76.588114,719.87127 c -5.891393,1.02368 -6.846754,5.55716 -4.617578,19.45007 l 1.910722,12.4305 6.846761,1.02369 c 3.662217,0.58496 9.712837,0.58496 13.53428,0 l 6.687531,-1.02369 1.91072,-12.4305 c 2.3884,-14.62412 1.27382,-18.1339 -5.891391,-19.59632 -5.572942,-0.87744 -14.330418,-0.87744 -20.381045,0.14625 z m 25.317076,3.50978 c 1.43304,1.90114 1.27382,4.241 -1.11459,18.71887 l -0.796131,5.55717 -10.986654,1.75489 c -12.260474,1.75489 -17.037279,1.90113 -11.145886,0.14624 3.662224,-1.02369 3.662224,-1.16993 0.477687,-1.31617 -2.706863,-0.14624 -3.502997,-1.31617 -4.299131,-5.99589 -3.025311,-18.71887 -2.866084,-19.45007 3.02531,-20.91248 5.732173,-1.46241 23.406355,0 24.839395,2.04737 z m -2.866081,27.20086 c -1.11459,0.29248 -3.34377,0.29248 -4.77681,0 -1.592267,-0.43873 -0.63691,-0.73121 1.91072,-0.73121 2.70686,0 3.82145,0.29248 2.86609,0.73121 z m -9.553614,1.46241 c -1.114588,0.29248 -3.02531,0.29248 -3.980671,0 -1.114588,-0.43872 -0.318454,-0.73121 1.910722,-0.73121 2.229176,0 3.02531,0.29249 2.069949,0.73121 z"
       id="path60"
       style="fill:#000000;stroke:none;stroke-width:0.15259594"
       inkscape:connector-curvature="0" />
    <path
       d="m 121.33087,423.87916 c -28.342384,21.93617 -52.544871,40.94753 -53.977913,42.2637 -2.54763,2.33985 -2.388403,2.77858 2.388403,7.75078 3.980671,4.24099 4.617578,5.7034 3.343763,8.04326 -1.592268,2.63234 -10.827425,8.04326 -11.942013,7.01958 -1.114588,-1.02369 3.662217,-5.55717 7.324435,-7.01958 3.184537,-1.16993 3.343764,-1.46241 0.636907,-1.16993 -3.980671,0.14624 -8.59825,-1.46241 -12.419694,-4.38723 -2.547629,-2.19362 -2.866083,-2.04738 -3.821444,0.87744 -0.796134,2.77859 -1.592269,3.21731 -6.05062,2.33986 -7.005982,-1.16993 -8.12057,1.16993 -2.866084,5.84965 3.662218,3.36355 3.980671,4.38723 2.388403,6.87333 -3.184537,4.53348 -2.388403,6.14213 2.706856,5.26468 3.662218,-0.7312 4.776806,-0.29248 5.413713,1.90114 0.477681,1.60865 2.069949,2.92482 3.502991,2.92482 1.433042,0 3.02531,-1.31617 3.502991,-2.92482 0.636907,-2.19362 1.751495,-2.63234 5.254486,-2.04738 5.572939,1.02369 7.324435,-1.46241 4.299124,-5.7034 -2.069949,-3.07107 -2.069949,-3.65603 1.273815,-7.16582 l 3.662218,-3.94851 5.413719,5.99589 5.413713,5.99589 54.455581,-41.97122 c 29.93464,-23.1061 54.45558,-42.26369 54.45558,-42.70242 0,-1.16993 -21.17717,-23.98355 -22.13254,-23.83731 -0.47768,0 -24.04325,17.98767 -52.22639,39.7776 z m 63.05382,-26.76213 c 7.48366,8.48198 9.23516,11.26057 7.64289,12.57674 -5.25449,4.67971 -103.338219,79.70143 -104.452807,79.99391 -1.114588,0.29248 -10.668205,-9.65191 -18.948001,-19.59631 -1.592269,-2.04738 1.114588,-4.67972 19.903362,-19.01135 12.101246,-9.2132 36.144496,-27.63958 53.659446,-41.24001 17.35572,-13.45419 31.84536,-24.27603 32.00459,-24.12979 0.31846,0.29248 4.77681,5.41092 10.19052,11.40681 z M 56.525531,483.98428 c -3.184537,4.38723 -6.369074,4.38723 -11.464333,0.14624 l -4.617578,-3.94851 5.572939,0.87744 c 2.866084,0.58497 6.050621,1.7549 6.687528,2.77859 0.796134,1.02368 1.273815,-0.29249 1.273815,-3.36355 0.159227,-4.82596 0.318453,-4.9722 2.388402,-2.33986 2.069949,2.4861 2.069949,3.36355 0.159227,5.84965 z m 7.005982,-2.19362 c 0,0.73121 -1.433042,2.77858 -3.184537,4.67972 -3.343764,3.80227 -4.299125,1.60865 -1.592269,-3.21731 1.751495,-2.77858 4.776806,-3.80227 4.776806,-1.46241 z m -9.075931,8.48199 c 1.433042,1.31617 -3.50299,6.28837 -6.369074,6.28837 -2.706856,0 -2.706856,-1.46241 0.636908,-4.67972 2.706856,-2.77858 4.139898,-3.21731 5.732166,-1.60865 z m 15.445004,1.75489 c 0.796135,1.60865 1.592269,3.21731 1.592269,3.65603 0,1.75489 -5.413713,0.73121 -8.279796,-1.60865 -2.706857,-2.19362 -2.866083,-2.04738 -2.866083,2.19361 0,3.21731 -0.796135,4.67972 -2.54763,4.67972 -3.662217,0 -2.388403,-9.06695 1.433042,-9.65192 1.751495,-0.14624 3.343763,-0.7312 3.980671,-1.16992 1.751495,-1.7549 5.095259,-0.73121 6.687527,1.90113 z"
       id="path62"
       style="fill:#000000;stroke:none;stroke-width:0.15259594"
       inkscape:connector-curvature="0" />
    <path
       d="m 97.765289,391.55986 c -4.458349,2.19362 -15.126548,11.6993 -15.126548,13.45419 0,2.04738 12.260468,19.01135 15.922688,22.08242 2.547631,2.04737 3.980671,2.33985 6.846751,1.16992 5.73217,-2.4861 20.22181,-15.06283 20.22181,-17.69518 0,-2.4861 -20.38104,-20.76624 -23.08789,-20.76624 -0.79614,0 -3.025311,0.87745 -4.776811,1.75489 z m 16.241141,8.92071 c 12.26047,10.96809 12.10124,11.84554 -1.91072,21.6437 -10.19052,7.01957 -11.14588,6.87333 -19.903358,-5.26469 -7.005982,-9.79815 -6.846755,-11.26057 2.866087,-17.84142 8.598251,-5.7034 9.235151,-6.28837 7.005981,-6.28837 -1.11459,0 -5.572941,3.07107 -10.031295,6.87334 -4.299125,3.65603 -7.483662,5.7034 -6.846755,4.24099 1.114588,-2.63234 14.489639,-12.57674 17.03727,-12.57674 0.79614,0 6.20985,4.09475 11.78279,9.21319 z"
       id="path64"
       style="fill:#000000;stroke:none;stroke-width:0.15259594"
       inkscape:connector-curvature="0" />
    <path
       d="m 156.51999,458.24583 c -16.55958,12.13802 -16.71881,13.60043 -1.27381,26.03093 l 10.50897,8.33575 5.25448,-2.4861 c 2.86609,-1.46242 7.64289,-4.9722 10.50898,-7.60454 l 5.25448,-4.9722 -2.70685,-4.82596 c -4.61758,-7.89702 -14.64887,-19.30383 -17.1965,-19.74256 -1.43305,-0.29248 -6.05062,2.19362 -10.34975,5.26468 z m 19.10722,5.70341 c 8.12057,10.96809 7.96135,12.28426 -1.91072,19.01135 -8.43902,5.7034 -9.23516,6.28837 -7.16521,6.28837 0.95536,0 5.41372,-3.07107 9.87207,-6.72709 4.45835,-3.65603 7.64289,-5.70341 7.16521,-4.241 -1.11459,2.63234 -14.48965,12.4305 -17.03728,12.4305 -0.79613,0 -6.20984,-4.24099 -11.94201,-9.35943 l -10.50896,-9.35944 2.70685,-3.80227 c 3.18453,-4.24099 16.71881,-13.89291 19.74412,-14.03915 1.11459,0 5.25449,4.38724 9.07593,9.79816 z"
       id="path66"
       style="fill:#000000;stroke:none;stroke-width:0.15259594"
       inkscape:connector-curvature="0" />
    <path
       d="m 190.43531,532.53634 c 2.86608,1.90114 7.32443,6.14213 10.19052,9.06695 2.70685,2.92483 4.1399,4.09476 3.34376,2.33986 -1.91072,-3.2173 -15.445,-15.20908 -17.35572,-15.20908 -0.79614,0 0.95536,1.7549 3.82144,3.80227 z"
       id="path68"
       style="fill:#000000;stroke:none;stroke-width:0.15259594"
       inkscape:connector-curvature="0" />
    <path
       d="m 719.54613,551.40145 v 19.74256 h 12.41969 c 10.98665,0 12.73815,-0.43873 16.71882,-3.65603 2.3884,-2.04738 4.29912,-4.241 4.29912,-4.67972 0,-0.58496 -2.06995,0.73121 -4.45835,2.92482 -3.98067,3.50979 -5.73216,3.94852 -15.92268,3.94852 h -11.46434 v -18.28015 -18.28014 h 11.46434 c 10.19052,0 11.94201,0.43872 15.92268,3.94851 2.3884,2.19361 4.45835,3.50979 4.45835,2.92482 0,-0.43872 -1.91072,-2.63234 -4.29912,-4.67972 -3.98067,-3.2173 -5.73217,-3.65603 -16.71882,-3.65603 h -12.41969 z"
       id="path70"
       style="fill:#000000;stroke:none;stroke-width:0.15259594"
       inkscape:connector-curvature="0" />
    <path
       d="m 736.5834,538.97095 c -2.22918,1.7549 -4.61758,4.241 -5.09526,5.84965 -0.47768,1.46241 -2.54763,2.92482 -4.45835,3.2173 -4.29913,0.58497 -4.61758,4.67972 -0.31846,5.26469 1.7515,0.29248 4.29913,2.4861 5.57294,4.9722 1.27382,2.4861 3.98067,5.55716 5.8914,6.72709 3.34376,1.90113 3.98067,1.75489 8.43902,-2.33986 3.82144,-3.65603 4.77681,-5.70341 4.77681,-10.82185 0,-6.58085 -2.86609,-11.84553 -7.80212,-14.33163 -2.22918,-1.02369 -3.98067,-0.7312 -7.00598,1.46241 z m 11.62356,4.38724 c 0.79613,1.46241 1.59227,5.11844 1.59227,8.04326 0,6.28837 -2.06995,10.38312 -6.36908,12.4305 -2.54763,1.31617 -3.98067,0.87745 -7.16521,-2.04738 -4.93603,-4.53347 -5.09525,-7.89702 -0.47768,-8.48198 4.93604,-0.58497 5.41372,-3.80227 0.63691,-4.9722 -5.09526,-1.16993 -5.25448,-2.63234 -0.15923,-7.31206 3.18454,-2.92482 4.61758,-3.36355 7.16521,-2.04738 1.7515,0.87745 3.82145,2.77858 4.77681,4.38724 z m -10.34975,7.31206 c 0.47768,0.7312 0.15923,1.46241 -0.6369,1.46241 -0.95537,0 -1.7515,-0.73121 -1.7515,-1.46241 0,-0.87745 0.31845,-1.46242 0.63691,-1.46242 0.47768,0 1.27381,0.58497 1.75149,1.46242 z m -5.89139,1.02368 c -1.59227,0.29249 -4.1399,0.29249 -5.57294,0 -1.59227,-0.43872 -0.31845,-0.7312 2.70686,-0.7312 3.02531,0 4.29912,0.29248 2.86608,0.7312 z"
       id="path72"
       style="fill:#000000;stroke:none;stroke-width:0.15259594"
       inkscape:connector-curvature="0" />
    <path
       d="m 753.7799,551.40145 c 0,5.11844 0.47768,8.33575 1.11459,6.87334 0.6369,-1.31618 1.11458,-4.53348 1.11458,-6.87334 0,-2.4861 -0.47768,-5.55716 -1.11458,-6.87333 -0.63691,-1.46242 -1.11459,1.75489 -1.11459,6.87333 z"
       id="path74"
       style="fill:#000000;stroke:none;stroke-width:0.15259594"
       inkscape:connector-curvature="0" />
    <path
       d="m 858.71039,579.33351 c -0.95536,3.65603 -1.43304,3.80227 -8.43902,2.77858 -15.12655,-2.33985 -24.52094,-1.75489 -30.09388,2.04738 -10.34974,6.72709 -10.6682,17.69518 -0.79613,24.56851 4.7768,3.36355 7.32443,4.09476 14.64887,3.94852 4.93603,-0.14625 12.26047,-0.58497 16.24114,-1.31617 7.00598,-1.02369 7.48366,-0.87745 8.43902,2.77858 0.95536,3.65603 1.59227,3.94851 7.80212,3.50979 l 6.68752,-0.43873 v -20.47376 -20.47376 l -6.68752,-0.43873 c -6.20985,-0.43872 -6.84676,-0.14624 -7.80212,3.50979 z m 13.69351,17.54894 v 19.74256 l -5.73217,-0.43873 -5.89139,-0.43872 0.15923,-18.71887 c 0,-10.23688 0.15922,-18.86511 0.15922,-19.30383 0.15923,-0.43872 2.70686,-0.73121 5.73217,-0.73121 h 5.57294 z m -25.4763,-12.72298 c 3.02531,1.46241 6.5283,4.24099 7.48367,6.14213 1.11458,1.90113 2.06994,2.63234 2.06994,1.46241 0,-1.16993 -1.11458,-3.36355 -2.70685,-4.82596 -2.3884,-2.4861 -2.3884,-2.63234 0.63691,-2.63234 2.86608,0 3.18453,1.02369 3.18453,12.4305 0,11.40681 -0.31845,12.4305 -3.18453,12.4305 -3.02531,0 -3.02531,-0.14624 -0.63691,-2.63234 1.59227,-1.46241 2.70685,-3.65603 2.70685,-4.82596 0,-1.16993 -0.95536,-0.43872 -2.06994,1.46241 -7.32444,13.16171 -37.41831,10.67561 -40.2844,-3.50979 -2.70685,-13.74667 17.03728,-23.25234 32.80073,-15.50156 z"
       id="path76"
       style="fill:#000000;stroke:none;stroke-width:0.15259594"
       inkscape:connector-curvature="0" />
    <path
       d="m 826.22811,588.25422 c -3.18453,1.46241 -5.73216,3.94851 -5.89139,5.55717 -0.47768,2.63234 -0.31845,2.63234 0.95536,-0.14624 0.79614,-1.7549 3.98067,-3.94852 7.00598,-4.82596 4.61758,-1.46241 6.68753,-1.31617 11.78279,0.7312 l 6.05062,2.63234 -5.09526,0.58497 c -8.59825,0.87745 -8.2798,6.87333 0.31845,7.89702 l 4.77681,0.58497 -6.05062,2.63234 c -5.09526,2.04737 -7.16521,2.19361 -11.78279,0.7312 -3.02531,-0.87744 -6.20984,-3.07106 -7.00598,-4.82596 -1.27381,-2.77858 -1.43304,-2.77858 -0.95536,-0.14624 0.15923,1.7549 2.70686,4.09476 6.36907,5.70341 5.41372,2.33986 6.68753,2.4861 11.94202,0.58496 9.55361,-3.36354 11.94201,-12.13801 4.45835,-16.52525 -5.89139,-3.50979 -10.98665,-3.80227 -16.87805,-1.16993 z"
       id="path78"
       style="fill:#000000;stroke:none;stroke-width:0.15259594"
       inkscape:connector-curvature="0" />
    <path
       d="m 774.79784,612.96898 c 2.86609,1.90113 7.32444,6.14213 10.19052,9.06695 2.70686,2.92482 4.1399,4.09475 3.34376,2.33986 -1.91072,-3.21731 -15.445,-15.20908 -17.35572,-15.20908 -0.79614,0 0.95536,1.75489 3.82144,3.80227 z"
       id="path80"
       style="fill:#000000;stroke:none;stroke-width:0.15259594"
       inkscape:connector-curvature="0" />
    <path
       d="m 159.06762,790.94447 c 0,1.75489 13.0566,14.18539 16.55959,15.94028 1.91073,0.73121 0.63691,-0.58496 -2.54763,-3.07106 -3.18453,-2.63234 -7.80211,-6.72709 -9.87206,-9.35943 -2.22918,-2.63235 -4.1399,-4.241 -4.1399,-3.50979 z"
       id="path82"
       style="fill:#000000;stroke:none;stroke-width:0.15259594"
       inkscape:connector-curvature="0" />
    <path
       d="m 18.947995,907.49867 v 67.27093 h 19.903356 19.903356 v -26.76213 -26.76213 l 6.846755,-6.14213 6.846754,-6.28837 4.139898,2.92482 3.980678,2.92483 6.5283,-4.38724 c 3.662218,-2.33986 8.757477,-7.16581 11.305107,-10.38312 l 4.936031,-6.14213 -3.502991,-3.36354 -3.50299,-3.36355 5.413711,-5.11844 5.41372,-5.11844 h 29.13851 29.1385 V 858.50788 840.22774 H 92.192352 18.947995 Z M 163.84443,858.50788 v 16.81774 H 135.66128 107.3189 l -24.998613,22.95986 -25.157848,23.1061 v 11.11433 c 0,9.9444 -0.318454,11.26057 -2.706857,10.82184 -1.592268,-0.14624 -1.910722,0 -0.796134,0.29249 1.114588,0.43872 1.433042,1.31617 0.955361,2.19361 -0.636907,1.02369 -0.318454,1.16993 0.636907,0.58497 1.433042,-0.73121 1.910723,2.77858 1.910723,12.86922 v 14.03915 H 38.851351 20.540264 v -65.80852 -65.80852 h 71.652088 71.652078 z m -66.079141,31.44185 c 1.59227,2.33986 -3.82144,9.21319 -13.852734,17.25646 -3.02531,2.4861 -5.254486,3.2173 -7.642895,2.4861 -3.343763,-1.02369 -2.706856,-1.7549 7.324442,-11.11433 11.305107,-10.38312 12.419697,-11.11433 14.171187,-8.62823 z m 2.388401,5.99589 c -2.388401,4.09475 -13.215824,13.89291 -17.833403,16.08653 -2.069949,0.87744 0.796134,-2.33986 6.369074,-7.31206 5.413708,-4.82596 9.872068,-9.65192 9.872068,-10.38312 0,-0.87745 0.79613,-1.46242 1.592261,-1.46242 1.11459,0 1.11459,1.02369 0,3.07107 z"
       id="path84"
       style="fill:#000000;stroke:none;stroke-width:0.15259594"
       inkscape:connector-curvature="0" />
    <path
       d="m 73.881258,853.38944 c -1.433042,1.46241 -5.095259,3.50979 -7.961343,4.38724 -5.732166,1.75489 -29.456967,23.25234 -29.456967,26.76213 0,1.31617 -1.751495,4.24099 -3.980671,6.58085 -3.50299,3.80227 -3.662217,4.53348 -1.433041,6.28837 1.910722,1.46241 2.866083,1.31617 5.254486,-1.02369 1.433041,-1.46241 12.260467,-11.69929 23.7248,-22.66738 17.037273,-16.08652 20.699497,-20.18128 18.948001,-21.64369 -1.751502,-1.16993 -2.866089,-0.87745 -5.095265,1.31617 z m 3.980671,1.16993 c 0,2.04738 -44.424291,41.82497 -45.698105,40.80128 -1.114588,-1.16992 42.195114,-41.97121 44.42429,-41.97121 0.796134,0 1.273815,0.43873 1.273815,1.16993 z m -14.489643,8.48199 c -2.069949,2.04737 -5.095259,4.38723 -6.687528,5.26468 -2.547629,1.16993 -2.706856,1.02369 -1.273815,-1.60865 1.910723,-3.07107 7.802116,-7.4583 10.349745,-7.4583 0.796135,0 -0.159226,1.75489 -2.388402,3.80227 z m -10.349745,9.50567 c -0.477681,0.73121 -1.592269,1.02369 -2.388403,0.43873 -0.796134,-0.43873 -1.114588,-1.46241 -0.477681,-2.19362 0.477681,-0.73121 1.592269,-1.02369 2.388403,-0.43872 0.796134,0.43872 1.114588,1.46241 0.477681,2.19361 z m -5.254486,3.80227 c -2.229176,3.94852 -9.712838,9.9444 -9.712838,7.89703 0,-1.90114 8.439023,-10.38313 10.349745,-10.38313 0.477681,0 0.159227,1.16993 -0.636907,2.4861 z"
       id="path86"
       style="fill:#000000;stroke:none;stroke-width:0.15259594"
       inkscape:connector-curvature="0" />
    <path
       d="m 35.34836,939.52548 c -0.796134,2.77859 -1.751495,3.21731 -5.891393,2.63235 l -4.936032,-0.87745 4.458352,1.90113 c 4.299124,1.7549 7.483661,4.67972 7.483661,7.01958 0,2.04738 -2.547629,1.31617 -8.916703,-2.4861 l -6.209847,-3.80227 4.458352,3.65603 c 4.776805,4.09475 5.095259,5.55716 2.388402,9.65191 -2.547629,3.65603 -0.636907,5.26469 3.821445,3.36355 3.02531,-1.16993 3.980671,-0.87745 5.254486,1.46241 2.069949,3.65603 4.299125,3.65603 6.5283,-0.14624 1.114588,-2.19362 2.229176,-2.63234 3.980672,-1.60865 5.891393,3.36355 10.190518,-1.16993 5.413712,-5.99589 -1.433041,-1.46241 -2.229175,-3.50979 -1.592268,-4.38723 0.955361,-1.31617 0.318454,-1.31617 -2.388403,0 -4.458351,2.19361 -6.05062,0.7312 -2.706856,-2.63234 2.069949,-2.04738 2.229176,-3.07107 0.796134,-4.38724 -1.114588,-1.02369 -2.547629,-1.75489 -3.502991,-1.75489 -0.796134,0 -2.866083,-1.16993 -4.458351,-2.4861 -2.866084,-2.33986 -3.02531,-2.33986 -3.980672,0.87744 z m 4.776806,5.70341 c -0.796134,2.04738 -0.318454,1.90113 2.706856,-0.43872 l 3.662218,-2.92483 -1.114588,2.92483 c -2.229176,4.9722 -1.910722,7.31205 0.796134,7.31205 3.343764,0 7.802116,3.50979 7.802116,5.99589 0,1.16993 -0.955361,2.04738 -2.069949,2.04738 -3.02531,0 -9.075931,-4.241 -9.075931,-6.28837 0,-1.02369 -1.433041,-2.77858 -3.184537,-3.94851 -2.229175,-1.46241 -3.184537,-3.80227 -3.184537,-7.31206 0.159227,-4.67972 0.318454,-4.82596 2.388403,-2.4861 1.114588,1.60865 1.751495,3.80227 1.273815,5.11844 z m 1.114588,9.65192 c 2.229176,2.4861 1.592268,9.21319 -0.796134,8.1895 -0.796135,-0.43872 -1.592269,-2.4861 -1.592269,-4.53348 v -3.80227 l -4.299125,2.92483 c -5.254486,3.65603 -7.802115,2.19362 -3.662217,-1.90114 3.343764,-3.50978 7.642888,-3.80227 10.349745,-0.87744 z"
       id="path88"
       style="fill:#000000;stroke:none;stroke-width:0.15259594"
       inkscape:connector-curvature="0" />
    <path
       d="m 111.29957,963.80152 v 16.81773 h 55.72939 55.7294 v -16.81773 -16.81774 h -55.7294 -55.72939 z m 109.70729,0 0.15923,15.20908 h -54.61481 c -29.93464,0 -53.02253,-0.43873 -51.27103,-1.16993 1.75149,-0.58497 21.01794,-1.02369 42.67278,-0.87745 29.13852,0.14624 39.96594,-0.29248 41.08053,-1.60865 0.95536,-1.02369 1.43304,-5.55717 1.11459,-10.23688 -0.47768,-7.89703 -0.63691,-8.33575 -4.77681,-8.77447 l -4.45835,-0.43873 v 10.23689 c 0,8.04326 -0.47768,10.09064 -2.3884,10.09064 -1.91072,0 -2.38841,-2.04738 -2.38841,-9.9444 v -9.9444 l -5.57293,-0.14624 c -3.02531,-0.14624 -6.05062,0.58496 -6.68753,1.46241 -0.47768,0.87744 -0.15923,1.02369 0.79613,0.43872 1.43304,-0.7312 1.91072,1.60865 1.91072,8.48199 0,7.60454 -0.47768,9.65192 -2.3884,9.65192 -1.91072,0 -2.3884,-2.04738 -2.3884,-10.23689 0,-5.84964 -0.63691,-10.23688 -1.59227,-10.23688 -0.95536,0 -1.59227,4.38724 -1.59227,10.23688 0,8.18951 -0.47768,10.23689 -2.3884,10.23689 -1.91072,0 -2.3884,-2.04738 -2.3884,-9.65192 0,-6.87334 0.47768,-9.21319 1.91072,-8.48199 0.95536,0.58497 1.27381,0.43872 0.79613,-0.43872 -0.6369,-0.87745 -3.66221,-1.60865 -6.68753,-1.46241 l -5.57293,0.14624 v 9.9444 c 0,7.89702 -0.47769,9.9444 -2.38841,9.9444 -1.91072,0 -2.3884,-2.04738 -2.3884,-9.9444 v -9.9444 l -5.57293,-0.14624 c -3.02531,-0.14624 -6.05062,0.58496 -6.68753,1.46241 -0.47768,0.87744 -0.15923,1.02369 0.79613,0.43872 1.43305,-0.7312 1.91073,1.60865 1.91073,8.48199 0,7.60454 -0.47768,9.65192 -2.38841,9.65192 -1.91072,0 -2.3884,-2.04738 -2.3884,-10.23689 0,-5.84964 -0.63691,-10.23688 -1.59227,-10.23688 -0.95536,0 -1.59227,4.38724 -1.59227,10.23688 0,8.18951 -0.47768,10.23689 -2.3884,10.23689 -1.91072,0 -2.3884,-2.04738 -2.3884,-9.65192 0,-6.87334 0.47768,-9.21319 1.91072,-8.48199 0.95536,0.58497 1.27382,0.43872 0.79614,-0.43872 -0.63691,-0.87745 -3.66222,-1.60865 -6.68753,-1.46241 l -5.57294,0.14624 v 9.9444 c 0,7.89702 -0.47768,9.9444 -2.3884,9.9444 -1.91073,0 -2.38841,-2.4861 -2.38841,-13.89291 V 948.4462 h 53.9779 53.9779 z m -95.69532,3.2173 c -0.63691,11.84554 -4.45835,12.4305 -4.45835,0.58497 0,-7.01958 0.47768,-8.92071 2.3884,-8.92071 2.06995,0 2.3884,1.60865 2.06995,8.33574 z m 21.01794,0.58497 c 0,11.84553 -3.82144,11.26057 -4.45835,-0.58497 -0.31845,-6.72709 0,-8.33574 2.06995,-8.33574 1.91072,0 2.3884,1.90113 2.3884,8.92071 z m 15.60422,-0.58497 c -0.6369,11.84554 -4.45835,12.4305 -4.45835,0.58497 0,-7.01958 0.47768,-8.92071 2.3884,-8.92071 2.06995,0 2.38841,1.60865 2.06995,8.33574 z m 21.01795,0.58497 c 0,11.84553 -3.82145,11.26057 -4.45835,-0.58497 -0.31846,-6.72709 0,-8.33574 2.06995,-8.33574 1.91072,0 2.3884,1.90113 2.3884,8.92071 z m 15.60423,-0.58497 c -0.63691,11.84554 -4.45835,12.4305 -4.45835,0.58497 0,-7.01958 0.47768,-8.92071 2.3884,-8.92071 2.06995,0 2.3884,1.60865 2.06995,8.33574 z"
       id="path90"
       style="fill:#000000;stroke:none;stroke-width:0.15259594"
       inkscape:connector-curvature="0" />
    <path
       d="m 204.6065,963.36279 c -1.43304,5.70341 -2.06995,10.96809 -1.43304,11.55305 0.79613,0.58497 3.50299,1.46242 6.05062,1.90114 l 4.7768,0.87745 -4.7768,-1.60866 c -6.20985,-2.19361 -6.05062,-1.75489 -4.29913,-8.04326 0.95536,-3.21731 2.06995,-7.60454 2.54763,-9.9444 1.11459,-4.24099 1.43304,-4.24099 9.71284,-1.60865 2.06995,0.58496 1.91072,0.14624 -0.79613,-1.31617 -7.48367,-4.241 -9.07593,-3.21731 -11.78279,8.1895 z"
       id="path92"
       style="fill:#000000;stroke:none;stroke-width:0.15259594"
       inkscape:connector-curvature="0" />
    <path
       d="m 216.54851,968.33499 c -0.95536,4.67972 -1.43304,8.62823 -1.11459,8.92071 0.31846,0.43873 1.59227,-3.07106 2.54763,-7.60454 0.95537,-4.53347 1.59227,-8.62823 1.11459,-8.92071 -0.31845,-0.29248 -1.43304,3.07107 -2.54763,7.60454 z"
       id="path94"
       style="fill:#000000;stroke:none;stroke-width:0.15259594"
       inkscape:connector-curvature="0" />
    <path
       d="m 383.57748,790.94447 c 0,1.75489 13.0566,14.18539 16.55959,15.94028 1.91072,0.73121 0.63691,-0.58496 -2.54763,-3.07106 -3.18454,-2.63234 -7.80212,-6.72709 -9.87207,-9.35943 -2.22917,-2.63235 -4.13989,-4.241 -4.13989,-3.50979 z"
       id="path96"
       style="fill:#000000;stroke:none;stroke-width:0.15259594"
       inkscape:connector-curvature="0" />
    <path
       d="m 243.45785,907.49867 v 67.27093 h 19.90336 19.90335 v -26.76213 -26.76213 l 6.84676,-6.14213 6.84675,-6.28837 4.1399,2.92482 3.98067,2.92483 6.5283,-4.38724 c 3.66222,-2.33986 8.75748,-7.16581 11.30511,-10.38312 l 4.93603,-6.14213 -3.50299,-3.36354 -3.50299,-3.36355 5.41371,-5.11844 5.41371,-5.11844 h 29.13852 29.13851 V 858.50788 840.22774 H 316.7022 243.45785 Z m 144.89643,-48.99079 v 16.81774 h -28.18315 -28.34238 l -24.99861,22.95986 -25.15785,23.1061 v 11.11433 c 0,9.9444 -0.31845,11.26057 -2.70685,10.82184 -1.59227,-0.14624 -1.91072,0 -0.79614,0.29249 1.11459,0.43872 1.43304,1.31617 0.95536,2.19361 -0.6369,1.02369 -0.31845,1.16993 0.63691,0.58497 1.43304,-0.73121 1.91072,2.77858 1.91072,12.86922 v 14.03915 h -18.31108 -18.31109 v -65.80852 -65.80852 h 71.65208 71.65208 z m -66.07914,31.44185 c 1.59227,2.33986 -3.82144,9.21319 -13.85274,17.25646 -3.02531,2.4861 -5.25448,3.2173 -7.64288,2.4861 -3.34377,-1.02369 -2.70686,-1.7549 7.32443,-11.11433 11.30511,-10.38312 12.41969,-11.11433 14.17119,-8.62823 z m 2.3884,5.99589 c -2.3884,4.09475 -13.21583,13.89291 -17.8334,16.08653 -2.06995,0.87744 0.79613,-2.33986 6.36907,-7.31206 5.41371,-4.82596 9.87206,-9.65192 9.87206,-10.38312 0,-0.87745 0.79614,-1.46242 1.59227,-1.46242 1.11459,0 1.11459,1.02369 0,3.07107 z"
       id="path98"
       style="fill:#000000;stroke:none;stroke-width:0.15259594"
       inkscape:connector-curvature="0" />
    <path
       d="m 298.39111,853.38944 c -1.43304,1.46241 -5.09526,3.50979 -7.96134,4.38724 -5.73217,1.75489 -29.45697,23.25234 -29.45697,26.76213 0,1.31617 -1.75149,4.24099 -3.98067,6.58085 -3.50299,3.80227 -3.66222,4.53348 -1.43304,6.28837 1.91072,1.46241 2.86608,1.31617 5.25449,-1.02369 1.43304,-1.46241 12.26046,-11.69929 23.7248,-22.66738 17.03727,-16.08652 20.69949,-20.18128 18.94799,-21.64369 -1.75149,-1.16993 -2.86608,-0.87745 -5.09526,1.31617 z m 3.98067,1.16993 c 0,2.04738 -44.42429,41.82497 -45.6981,40.80128 -1.11459,-1.16992 42.19511,-41.97121 44.42429,-41.97121 0.79613,0 1.27381,0.43873 1.27381,1.16993 z m -14.48964,8.48199 c -2.06995,2.04737 -5.09526,4.38723 -6.68753,5.26468 -2.54763,1.16993 -2.70685,1.02369 -1.27381,-1.60865 1.91072,-3.07107 7.80211,-7.4583 10.34974,-7.4583 0.79614,0 -0.15922,1.75489 -2.3884,3.80227 z m -10.34974,9.50567 c -0.47768,0.73121 -1.59227,1.02369 -2.38841,0.43873 -0.79613,-0.43873 -1.11459,-1.46241 -0.47768,-2.19362 0.47768,-0.73121 1.59227,-1.02369 2.38841,-0.43872 0.79613,0.43872 1.11458,1.46241 0.47768,2.19361 z m -5.25449,3.80227 c -2.22918,3.94852 -9.71284,9.9444 -9.71284,7.89703 0,-1.90114 8.43902,-10.38313 10.34975,-10.38313 0.47768,0 0.15922,1.16993 -0.63691,2.4861 z"
       id="path100"
       style="fill:#000000;stroke:none;stroke-width:0.15259594"
       inkscape:connector-curvature="0" />
    <path
       d="m 259.85822,939.52548 c -0.79614,2.77859 -1.7515,3.21731 -5.8914,2.63235 l -4.93603,-0.87745 4.45835,1.90113 c 4.29913,1.7549 7.48366,4.67972 7.48366,7.01958 0,2.04738 -2.54763,1.31617 -8.9167,-2.4861 l -6.20985,-3.80227 4.45835,3.65603 c 4.77681,4.09475 5.09526,5.55716 2.38841,9.65191 -2.54763,3.65603 -0.63691,5.26469 3.82144,3.36355 3.02531,-1.16993 3.98067,-0.87745 5.25449,1.46241 2.06995,3.65603 4.29912,3.65603 6.5283,-0.14624 1.11459,-2.19362 2.22917,-2.63234 3.98067,-1.60865 5.89139,3.36355 10.19052,-1.16993 5.41371,-5.99589 -1.43304,-1.46241 -2.22917,-3.50979 -1.59227,-4.38723 0.95537,-1.31617 0.31846,-1.31617 -2.3884,0 -4.45835,2.19361 -6.05062,0.7312 -2.70686,-2.63234 2.06995,-2.04738 2.22918,-3.07107 0.79614,-4.38724 -1.11459,-1.02369 -2.54763,-1.75489 -3.50299,-1.75489 -0.79614,0 -2.86608,-1.16993 -4.45835,-2.4861 -2.86609,-2.33986 -3.02531,-2.33986 -3.98067,0.87744 z m 4.7768,5.70341 c -0.79613,2.04738 -0.31845,1.90113 2.70686,-0.43872 l 3.66221,-2.92483 -1.11458,2.92483 c -2.22918,4.9722 -1.91073,7.31205 0.79613,7.31205 3.34376,0 7.80212,3.50979 7.80212,5.99589 0,1.16993 -0.95536,2.04738 -2.06995,2.04738 -3.02531,0 -9.07593,-4.241 -9.07593,-6.28837 0,-1.02369 -1.43304,-2.77858 -3.18454,-3.94851 -2.22918,-1.46241 -3.18454,-3.80227 -3.18454,-7.31206 0.15923,-4.67972 0.31846,-4.82596 2.38841,-2.4861 1.11458,1.60865 1.75149,3.80227 1.27381,5.11844 z m 1.11459,9.65192 c 2.22917,2.4861 1.59227,9.21319 -0.79614,8.1895 -0.79613,-0.43872 -1.59226,-2.4861 -1.59226,-4.53348 v -3.80227 l -4.29913,2.92483 c -5.25448,3.65603 -7.80211,2.19362 -3.66222,-1.90114 3.34377,-3.50978 7.64289,-3.80227 10.34975,-0.87744 z"
       id="path102"
       style="fill:#000000;stroke:none;stroke-width:0.15259594"
       inkscape:connector-curvature="0" />
    <path
       d="m 335.80942,963.80152 v 16.81773 h 55.7294 55.7294 v -16.81773 -16.81774 h -55.7294 -55.7294 z m 109.7073,0 0.15923,15.20908 h -54.61481 c -29.93465,0 -53.02254,-0.43873 -51.27105,-1.16993 1.7515,-0.58497 21.01795,-1.02369 42.6728,-0.87745 29.13851,0.14624 39.96594,-0.29248 41.08053,-1.60865 0.95536,-1.02369 1.43304,-5.55717 1.11458,-10.23688 -0.47768,-7.89703 -0.6369,-8.33575 -4.7768,-8.77447 l -4.45835,-0.43873 v 10.23689 c 0,8.04326 -0.47768,10.09064 -2.38841,10.09064 -1.91072,0 -2.3884,-2.04738 -2.3884,-9.9444 v -9.9444 l -5.57294,-0.14624 c -3.02531,-0.14624 -6.05062,0.58496 -6.68753,1.46241 -0.47768,0.87744 -0.15922,1.02369 0.79614,0.43872 1.43304,-0.7312 1.91072,1.60865 1.91072,8.48199 0,7.60454 -0.47768,9.65192 -2.3884,9.65192 -1.91073,0 -2.38841,-2.04738 -2.38841,-10.23689 0,-5.84964 -0.6369,-10.23688 -1.59226,-10.23688 -0.95537,0 -1.59227,4.38724 -1.59227,10.23688 0,8.18951 -0.47768,10.23689 -2.38841,10.23689 -1.91072,0 -2.3884,-2.04738 -2.3884,-9.65192 0,-6.87334 0.47768,-9.21319 1.91072,-8.48199 0.95537,0.58497 1.27382,0.43872 0.79614,-0.43872 -0.63691,-0.87745 -3.66222,-1.60865 -6.68753,-1.46241 l -5.57294,0.14624 v 9.9444 c 0,7.89702 -0.47768,9.9444 -2.3884,9.9444 -1.91072,0 -2.3884,-2.04738 -2.3884,-9.9444 v -9.9444 l -5.57294,-0.14624 c -3.02531,-0.14624 -6.05062,0.58496 -6.68753,1.46241 -0.47768,0.87744 -0.15923,1.02369 0.79613,0.43872 1.43304,-0.7312 1.91072,1.60865 1.91072,8.48199 0,7.60454 -0.47768,9.65192 -2.3884,9.65192 -1.91072,0 -2.3884,-2.04738 -2.3884,-10.23689 0,-5.84964 -0.63691,-10.23688 -1.59227,-10.23688 -0.95536,0 -1.59227,4.38724 -1.59227,10.23688 0,8.18951 -0.47768,10.23689 -2.3884,10.23689 -1.91072,0 -2.3884,-2.04738 -2.3884,-9.65192 0,-6.87334 0.47768,-9.21319 1.91072,-8.48199 0.95536,0.58497 1.27381,0.43872 0.79613,-0.43872 -0.6369,-0.87745 -3.66221,-1.60865 -6.68752,-1.46241 l -5.57294,0.14624 v 9.9444 c 0,7.89702 -0.47768,9.9444 -2.38841,9.9444 -1.91072,0 -2.3884,-2.4861 -2.3884,-13.89291 V 948.4462 h 53.9779 53.9779 z m -95.69534,3.2173 c -0.6369,11.84554 -4.45835,12.4305 -4.45835,0.58497 0,-7.01958 0.47768,-8.92071 2.38841,-8.92071 2.06994,0 2.3884,1.60865 2.06994,8.33574 z m 21.01795,0.58497 c 0,11.84553 -3.82145,11.26057 -4.45835,-0.58497 -0.31846,-6.72709 0,-8.33574 2.06995,-8.33574 1.91072,0 2.3884,1.90113 2.3884,8.92071 z m 15.60423,-0.58497 c -0.63691,11.84554 -4.45835,12.4305 -4.45835,0.58497 0,-7.01958 0.47768,-8.92071 2.3884,-8.92071 2.06995,0 2.3884,1.60865 2.06995,8.33574 z m 21.01794,0.58497 c 0,11.84553 -3.82144,11.26057 -4.45835,-0.58497 -0.31845,-6.72709 0,-8.33574 2.06995,-8.33574 1.91072,0 2.3884,1.90113 2.3884,8.92071 z m 15.60423,-0.58497 c -0.6369,11.84554 -4.45835,12.4305 -4.45835,0.58497 0,-7.01958 0.47768,-8.92071 2.38841,-8.92071 2.06994,0 2.3884,1.60865 2.06994,8.33574 z"
       id="path104"
       style="fill:#000000;stroke:none;stroke-width:0.15259594"
       inkscape:connector-curvature="0" />
    <path
       d="m 429.11635,963.36279 c -1.43304,5.70341 -2.06994,10.96809 -1.43304,11.55305 0.79614,0.58497 3.50299,1.46242 6.05062,1.90114 l 4.77681,0.87745 -4.77681,-1.60866 c -6.20984,-2.19361 -6.05062,-1.75489 -4.29912,-8.04326 0.95536,-3.21731 2.06995,-7.60454 2.54763,-9.9444 1.11459,-4.24099 1.43304,-4.24099 9.71284,-1.60865 2.06994,0.58496 1.91072,0.14624 -0.79614,-1.31617 -7.48366,-4.241 -9.07593,-3.21731 -11.78279,8.1895 z"
       id="path106"
       style="fill:#000000;stroke:none;stroke-width:0.15259594"
       inkscape:connector-curvature="0" />
    <path
       d="m 441.05837,968.33499 c -0.95536,4.67972 -1.43304,8.62823 -1.11459,8.92071 0.31845,0.43873 1.59227,-3.07106 2.54763,-7.60454 0.95536,-4.53347 1.59227,-8.62823 1.11459,-8.92071 -0.31846,-0.29248 -1.43304,3.07107 -2.54763,7.60454 z"
       id="path108"
       style="fill:#000000;stroke:none;stroke-width:0.15259594"
       inkscape:connector-curvature="0" />
    <path
       d="m 606.49506,790.94447 c 0,1.75489 13.05661,14.18539 16.5596,15.94028 1.91072,0.73121 0.6369,-0.58496 -2.54763,-3.07106 -3.18454,-2.63234 -7.80212,-6.72709 -9.87207,-9.35943 -2.22917,-2.63235 -4.1399,-4.241 -4.1399,-3.50979 z"
       id="path110"
       style="fill:#000000;stroke:none;stroke-width:0.15259594"
       inkscape:connector-curvature="0" />
    <path
       d="m 467.96771,907.49867 v 67.27093 h 19.90335 19.90336 v -26.76213 -26.76213 l 6.84675,-6.14213 6.84676,-6.28837 4.13989,2.92482 3.98068,2.92483 6.5283,-4.38724 c 3.66221,-2.33986 8.75747,-7.16581 11.3051,-10.38312 l 4.93604,-6.14213 -3.503,-3.36354 -3.50299,-3.36355 5.41372,-5.11844 5.41371,-5.11844 h 29.13851 29.13852 v -18.28015 -18.28014 h -73.24435 -73.24435 z m 144.89643,-48.99079 v 16.81774 h -28.18315 -28.34238 l -24.99862,22.95986 -25.15784,23.1061 v 11.11433 c 0,9.9444 -0.31845,11.26057 -2.70686,10.82184 -1.59227,-0.14624 -1.91072,0 -0.79613,0.29249 1.11459,0.43872 1.43304,1.31617 0.95536,2.19361 -0.63691,1.02369 -0.31845,1.16993 0.63691,0.58497 1.43304,-0.73121 1.91072,2.77858 1.91072,12.86922 v 14.03915 h -18.31109 -18.31109 v -65.80852 -65.80852 h 71.65209 71.65208 z M 546.785,889.94973 c 1.59226,2.33986 -3.82145,9.21319 -13.85274,17.25646 -3.02531,2.4861 -5.25449,3.2173 -7.64289,2.4861 -3.34376,-1.02369 -2.70686,-1.7549 7.32444,-11.11433 11.3051,-10.38312 12.41969,-11.11433 14.17119,-8.62823 z m 2.3884,5.99589 c -2.3884,4.09475 -13.21583,13.89291 -17.83341,16.08653 -2.06995,0.87744 0.79614,-2.33986 6.36908,-7.31206 5.41371,-4.82596 9.87206,-9.65192 9.87206,-10.38312 0,-0.87745 0.79613,-1.46242 1.59227,-1.46242 1.11459,0 1.11459,1.02369 0,3.07107 z"
       id="path112"
       style="fill:#000000;stroke:none;stroke-width:0.15259594"
       inkscape:connector-curvature="0" />
    <path
       d="m 522.90097,853.38944 c -1.43304,1.46241 -5.09526,3.50979 -7.96134,4.38724 -5.73217,1.75489 -29.45697,23.25234 -29.45697,26.76213 0,1.31617 -1.7515,4.24099 -3.98067,6.58085 -3.50299,3.80227 -3.66222,4.53348 -1.43304,6.28837 1.91072,1.46241 2.86608,1.31617 5.25448,-1.02369 1.43304,-1.46241 12.26047,-11.69929 23.7248,-22.66738 17.03728,-16.08652 20.69949,-20.18128 18.948,-21.64369 -1.7515,-1.16993 -2.86609,-0.87745 -5.09526,1.31617 z m 3.98067,1.16993 c 0,2.04738 -44.42429,41.82497 -45.69811,40.80128 -1.11458,-1.16992 42.19512,-41.97121 44.42429,-41.97121 0.79614,0 1.27382,0.43873 1.27382,1.16993 z m -14.48964,8.48199 c -2.06995,2.04737 -5.09526,4.38723 -6.68753,5.26468 -2.54763,1.16993 -2.70686,1.02369 -1.27382,-1.60865 1.91073,-3.07107 7.80212,-7.4583 10.34975,-7.4583 0.79613,0 -0.15923,1.75489 -2.3884,3.80227 z m -10.34975,9.50567 c -0.47768,0.73121 -1.59227,1.02369 -2.3884,0.43873 -0.79614,-0.43873 -1.11459,-1.46241 -0.47768,-2.19362 0.47768,-0.73121 1.59227,-1.02369 2.3884,-0.43872 0.79613,0.43872 1.11459,1.46241 0.47768,2.19361 z m -5.25448,3.80227 c -2.22918,3.94852 -9.71284,9.9444 -9.71284,7.89703 0,-1.90114 8.43902,-10.38313 10.34974,-10.38313 0.47768,0 0.15923,1.16993 -0.6369,2.4861 z"
       id="path114"
       style="fill:#000000;stroke:none;stroke-width:0.15259594"
       inkscape:connector-curvature="0" />
    <path
       d="m 484.36807,939.52548 c -0.79613,2.77859 -1.75149,3.21731 -5.89139,2.63235 l -4.93603,-0.87745 4.45835,1.90113 c 4.29912,1.7549 7.48366,4.67972 7.48366,7.01958 0,2.04738 -2.54763,1.31617 -8.9167,-2.4861 l -6.20985,-3.80227 4.45835,3.65603 c 4.77681,4.09475 5.09526,5.55716 2.3884,9.65191 -2.54763,3.65603 -0.6369,5.26469 3.82145,3.36355 3.02531,-1.16993 3.98067,-0.87745 5.25448,1.46241 2.06995,3.65603 4.29913,3.65603 6.5283,-0.14624 1.11459,-2.19362 2.22918,-2.63234 3.98068,-1.60865 5.89139,3.36355 10.19051,-1.16993 5.41371,-5.99589 -1.43304,-1.46241 -2.22918,-3.50979 -1.59227,-4.38723 0.95536,-1.31617 0.31845,-1.31617 -2.3884,0 -4.45835,2.19361 -6.05062,0.7312 -2.70686,-2.63234 2.06995,-2.04738 2.22918,-3.07107 0.79613,-4.38724 -1.11458,-1.02369 -2.54762,-1.75489 -3.50299,-1.75489 -0.79613,0 -2.86608,-1.16993 -4.45835,-2.4861 -2.86608,-2.33986 -3.02531,-2.33986 -3.98067,0.87744 z m 4.77681,5.70341 c -0.79614,2.04738 -0.31846,1.90113 2.70685,-0.43872 l 3.66222,-2.92483 -1.11459,2.92483 c -2.22917,4.9722 -1.91072,7.31205 0.79614,7.31205 3.34376,0 7.80211,3.50979 7.80211,5.99589 0,1.16993 -0.95536,2.04738 -2.06995,2.04738 -3.02531,0 -9.07593,-4.241 -9.07593,-6.28837 0,-1.02369 -1.43304,-2.77858 -3.18453,-3.94851 -2.22918,-1.46241 -3.18454,-3.80227 -3.18454,-7.31206 0.15923,-4.67972 0.31845,-4.82596 2.3884,-2.4861 1.11459,1.60865 1.7515,3.80227 1.27382,5.11844 z m 1.11458,9.65192 c 2.22918,2.4861 1.59227,9.21319 -0.79613,8.1895 -0.79613,-0.43872 -1.59227,-2.4861 -1.59227,-4.53348 v -3.80227 l -4.29912,2.92483 c -5.25449,3.65603 -7.80212,2.19362 -3.66222,-1.90114 3.34376,-3.50978 7.64289,-3.80227 10.34974,-0.87744 z"
       id="path116"
       style="fill:#000000;stroke:none;stroke-width:0.15259594"
       inkscape:connector-curvature="0" />
    <path
       d="m 558.72701,963.80152 v 16.81773 h 55.7294 55.72939 v -16.81773 -16.81774 h -55.72939 -55.7294 z m 109.7073,0 0.15922,15.20908 h -54.6148 c -29.93465,0 -53.02255,-0.43873 -51.27105,-1.16993 1.7515,-0.58497 21.01794,-1.02369 42.6728,-0.87745 29.13851,0.14624 39.96593,-0.29248 41.08052,-1.60865 0.95536,-1.02369 1.43304,-5.55717 1.11459,-10.23688 -0.47768,-7.89703 -0.63691,-8.33575 -4.77681,-8.77447 l -4.45835,-0.43873 v 10.23689 c 0,8.04326 -0.47768,10.09064 -2.3884,10.09064 -1.91072,0 -2.3884,-2.04738 -2.3884,-9.9444 v -9.9444 l -5.57294,-0.14624 c -3.02531,-0.14624 -6.05062,0.58496 -6.68753,1.46241 -0.47768,0.87744 -0.15923,1.02369 0.79613,0.43872 1.43305,-0.7312 1.91073,1.60865 1.91073,8.48199 0,7.60454 -0.47768,9.65192 -2.38841,9.65192 -1.91072,0 -2.3884,-2.04738 -2.3884,-10.23689 0,-5.84964 -0.63691,-10.23688 -1.59227,-10.23688 -0.95536,0 -1.59227,4.38724 -1.59227,10.23688 0,8.18951 -0.47768,10.23689 -2.3884,10.23689 -1.91072,0 -2.3884,-2.04738 -2.3884,-9.65192 0,-6.87334 0.47768,-9.21319 1.91072,-8.48199 0.95536,0.58497 1.27382,0.43872 0.79614,-0.43872 -0.63691,-0.87745 -3.66222,-1.60865 -6.68753,-1.46241 l -5.57294,0.14624 v 9.9444 c 0,7.89702 -0.47768,9.9444 -2.3884,9.9444 -1.91073,0 -2.38841,-2.04738 -2.38841,-9.9444 v -9.9444 l -5.57294,-0.14624 c -3.02531,-0.14624 -6.05062,0.58496 -6.68752,1.46241 -0.47769,0.87744 -0.15923,1.02369 0.79613,0.43872 1.43304,-0.7312 1.91072,1.60865 1.91072,8.48199 0,7.60454 -0.47768,9.65192 -2.3884,9.65192 -1.91072,0 -2.3884,-2.04738 -2.3884,-10.23689 0,-5.84964 -0.63691,-10.23688 -1.59227,-10.23688 -0.95536,0 -1.59227,4.38724 -1.59227,10.23688 0,8.18951 -0.47768,10.23689 -2.3884,10.23689 -1.91073,0 -2.38841,-2.04738 -2.38841,-9.65192 0,-6.87334 0.47768,-9.21319 1.91073,-8.48199 0.95536,0.58497 1.27381,0.43872 0.79613,-0.43872 -0.63691,-0.87745 -3.66222,-1.60865 -6.68753,-1.46241 l -5.57294,0.14624 v 9.9444 c 0,7.89702 -0.47768,9.9444 -2.3884,9.9444 -1.91072,0 -2.3884,-2.4861 -2.3884,-13.89291 V 948.4462 h 53.9779 53.9779 z m -95.69534,3.2173 c -0.63691,11.84554 -4.45835,12.4305 -4.45835,0.58497 0,-7.01958 0.47768,-8.92071 2.3884,-8.92071 2.06995,0 2.38841,1.60865 2.06995,8.33574 z m 21.01795,0.58497 c 0,11.84553 -3.82145,11.26057 -4.45836,-0.58497 -0.31845,-6.72709 0,-8.33574 2.06995,-8.33574 1.91073,0 2.38841,1.90113 2.38841,8.92071 z m 15.60423,-0.58497 c -0.63691,11.84554 -4.45835,12.4305 -4.45835,0.58497 0,-7.01958 0.47768,-8.92071 2.3884,-8.92071 2.06995,0 2.3884,1.60865 2.06995,8.33574 z m 21.01794,0.58497 c 0,11.84553 -3.82144,11.26057 -4.45835,-0.58497 -0.31845,-6.72709 0,-8.33574 2.06995,-8.33574 1.91072,0 2.3884,1.90113 2.3884,8.92071 z m 15.60423,-0.58497 c -0.63691,11.84554 -4.45835,12.4305 -4.45835,0.58497 0,-7.01958 0.47768,-8.92071 2.3884,-8.92071 2.06995,0 2.38841,1.60865 2.06995,8.33574 z"
       id="path118"
       style="fill:#000000;stroke:none;stroke-width:0.15259594"
       inkscape:connector-curvature="0" />
    <path
       d="m 652.03394,963.36279 c -1.43304,5.70341 -2.06995,10.96809 -1.43304,11.55305 0.79613,0.58497 3.50299,1.46242 6.05062,1.90114 l 4.77681,0.87745 -4.77681,-1.60866 c -6.20985,-2.19361 -6.05062,-1.75489 -4.29912,-8.04326 0.95536,-3.21731 2.06994,-7.60454 2.54763,-9.9444 1.11458,-4.24099 1.43304,-4.24099 9.71283,-1.60865 2.06995,0.58496 1.91073,0.14624 -0.79613,-1.31617 -7.48366,-4.241 -9.07593,-3.21731 -11.78279,8.1895 z"
       id="path120"
       style="fill:#000000;stroke:none;stroke-width:0.15259594"
       inkscape:connector-curvature="0" />
    <path
       d="m 663.97596,968.33499 c -0.95537,4.67972 -1.43305,8.62823 -1.11459,8.92071 0.31845,0.43873 1.59227,-3.07106 2.54763,-7.60454 0.95536,-4.53347 1.59227,-8.62823 1.11459,-8.92071 -0.31846,-0.29248 -1.43305,3.07107 -2.54763,7.60454 z"
       id="path122"
       style="fill:#000000;stroke:none;stroke-width:0.15259594"
       inkscape:connector-curvature="0" />
    <path
       d="m 693.43292,791.52943 c -1.75149,9.65192 -0.31845,64.49235 1.7515,66.39349 2.22917,2.04737 28.18315,1.31617 30.57155,-0.87745 1.91072,-1.75489 2.86609,-66.68597 1.11459,-69.31831 -0.79613,-1.02369 -6.84675,-1.60865 -16.71882,-1.60865 h -15.60423 z m 27.38702,30.71065 -0.47768,34.80539 h -11.94201 -11.94202 l -0.47768,-34.80539 -0.31845,-34.65916 h 12.73815 12.73814 z m 4.61758,16.81773 c -0.15923,9.9444 -0.47768,2.19362 -0.47768,-17.11022 0,-19.30383 0.31845,-27.34709 0.47768,-17.98766 0.31845,9.35944 0.31845,25.15348 0,35.09788 z"
       id="path124"
       style="fill:#000000;stroke:none;stroke-width:0.15259594"
       inkscape:connector-curvature="0" />
    <path
       d="m 811.8977,790.94447 c 0,1.75489 13.0566,14.18539 16.55959,15.94028 1.91072,0.73121 0.63691,-0.58496 -2.54763,-3.07106 -3.18454,-2.63234 -7.80212,-6.72709 -9.87206,-9.35943 -2.22918,-2.63235 -4.1399,-4.241 -4.1399,-3.50979 z"
       id="path126"
       style="fill:#000000;stroke:none;stroke-width:0.15259594"
       inkscape:connector-curvature="0" />
    <path
       d="m 852.50054,828.67469 c -16.87804,1.60865 -17.03727,1.75489 -16.08191,8.1895 0.47768,3.07107 1.27382,10.67561 1.7515,16.96398 l 1.11459,11.40681 5.73216,-0.73121 c 3.34377,-0.43872 11.14588,-1.16993 17.51496,-1.75489 10.82742,-0.87745 11.46433,-1.02369 11.46433,-4.38724 0,-2.4861 -0.95536,-3.50979 -3.02531,-3.50979 -2.06995,0 -3.18454,-1.46241 -3.98067,-4.53347 -1.43304,-7.01958 -1.11459,-15.94029 0.6369,-15.94029 1.7515,0 2.86609,3.94851 3.66222,13.16171 l 0.63691,6.58085 0.15923,-7.31206 c 0.15922,-10.6756 -1.7515,-19.01135 -4.45836,-19.15759 -1.27381,-0.14624 -8.12057,0.29248 -15.12655,1.02369 z m 16.71882,1.90113 c 0,1.90114 -12.41969,3.80227 -25.63552,3.80227 -10.34975,0 -7.00598,-2.63234 4.61758,-3.65603 5.89139,-0.43872 12.10124,-1.02369 13.85273,-1.31617 6.52831,-0.87744 7.16521,-0.87744 7.16521,1.16993 z m -5.73216,4.9722 c 0.31845,0.58497 0.95536,5.41092 1.11458,10.52936 l 0.47768,9.50568 -11.94201,0.87745 c -6.5283,0.43872 -12.10124,0.58496 -12.57892,0.29248 -0.31845,-0.29248 -1.11459,-4.82596 -1.59227,-10.09064 l -0.79613,-9.35944 4.7768,-0.7312 c 2.54763,-0.43872 7.64289,-0.87745 11.14588,-1.16993 3.50299,-0.29248 6.84676,-0.58496 7.48366,-0.73121 0.63691,-0.14624 1.43305,0.14625 1.91073,0.87745 z m 8.43902,23.25235 c 0.47768,1.02368 -3.34376,2.04737 -10.19052,2.63234 -5.89139,0.43872 -13.21583,1.16993 -15.92268,1.60865 -3.98068,0.58496 -5.25449,0.14624 -5.25449,-1.46241 0,-1.60866 2.86608,-2.33986 10.82743,-3.07107 5.89139,-0.43872 12.10124,-1.02369 13.85273,-1.31617 4.45835,-0.58496 6.05062,-0.29248 6.68753,1.60866 z"
       id="path128"
       style="fill:#000000;stroke:none;stroke-width:0.15259594"
       inkscape:connector-curvature="0" />
    <path
       d="m 690.88529,925.04761 v 55.57164 h 22.29176 22.29176 v -55.57164 -55.57164 h -22.29176 -22.29176 z m 42.99125,0 v 54.10923 h -20.69949 -20.69949 v -54.10923 -54.10923 h 20.69949 20.69949 z"
       id="path130"
       style="fill:#000000;stroke:none;stroke-width:0.15259594"
       inkscape:connector-curvature="0" />
    <path
       d="m 714.76932,896.09186 c -0.15923,2.63234 -1.11459,6.43461 -2.3884,8.48199 -1.59227,2.4861 -2.22918,8.33574 -2.22918,18.28014 0,9.9444 0.63691,15.79405 2.22918,18.28015 1.27381,2.04737 2.22917,5.84964 2.3884,8.33574 0,3.80227 0.63691,4.82596 3.18454,4.82596 3.02531,0 3.18453,-1.02369 3.18453,-31.44185 0,-30.41816 -0.15922,-31.44185 -3.18453,-31.44185 -2.54763,0 -3.18454,1.02369 -3.18454,4.67972 z m 4.77681,26.76213 c 0,19.01135 -0.63691,29.97944 -1.59227,29.97944 -0.95536,0 -1.59227,-10.96809 -1.59227,-29.97944 0,-19.01135 0.63691,-29.97944 1.59227,-29.97944 0.95536,0 1.59227,10.96809 1.59227,29.97944 z m -4.77681,-12.4305 c 0,3.21731 -0.63691,5.84965 -1.59227,5.84965 -1.75149,0 -2.06995,-5.7034 -0.63691,-9.35943 1.59227,-3.80227 2.22918,-2.77859 2.22918,3.50978 z m 0,25.15348 c 0,4.67972 -0.47768,5.70341 -1.59227,4.09476 -2.06995,-2.92483 -2.06995,-10.23689 0,-10.23689 0.95536,0 1.59227,2.77859 1.59227,6.14213 z"
       id="path132"
       style="fill:#000000;stroke:none;stroke-width:0.15259594"
       inkscape:connector-curvature="0" />
    <path
       d="m 788.65058,878.8354 c -6.05062,2.4861 -11.78279,8.92071 -11.62356,13.16171 0,2.19362 0.63691,1.60865 1.91072,-1.90114 2.70686,-7.01957 9.39438,-11.11433 17.83341,-11.11433 8.43902,0 15.12655,4.09476 17.8334,11.11433 1.27382,3.50979 1.91073,4.09476 1.91073,1.90114 0.15922,-4.38724 -5.73217,-10.82185 -11.94202,-13.16171 -6.5283,-2.4861 -9.55361,-2.4861 -15.92268,0 z"
       id="path134"
       style="fill:#000000;stroke:none;stroke-width:0.15259594"
       inkscape:connector-curvature="0" />
    <path
       d="m 852.50054,885.70874 c -16.87804,1.60865 -17.03727,1.75489 -16.08191,8.1895 0.47768,3.07107 1.27382,10.67561 1.7515,16.96398 l 1.11459,11.40681 5.73216,-0.73121 c 3.34377,-0.43872 11.14588,-1.16993 17.51496,-1.75489 10.82742,-0.87745 11.46433,-1.02369 11.46433,-4.38724 0,-2.4861 -0.95536,-3.50978 -3.02531,-3.50978 -2.06995,0 -3.18454,-1.46242 -3.98067,-4.53348 -1.43304,-7.01958 -1.11459,-15.94029 0.6369,-15.94029 1.7515,0 2.86609,3.94851 3.66222,13.16171 l 0.63691,6.58085 0.15923,-7.31206 c 0.15922,-10.6756 -1.7515,-19.01135 -4.45836,-19.15759 -1.27381,-0.14624 -8.12057,0.29248 -15.12655,1.02369 z m 16.71882,1.90113 c 0,1.90114 -12.41969,3.80227 -25.63552,3.80227 -10.34975,0 -7.00598,-2.63234 4.61758,-3.65603 5.89139,-0.43872 12.10124,-1.02368 13.85273,-1.31617 6.52831,-0.87744 7.16521,-0.87744 7.16521,1.16993 z m -5.73216,4.9722 c 0.31845,0.58497 0.95536,5.41093 1.11458,10.52937 l 0.47768,9.50567 -11.94201,0.87745 c -6.5283,0.43872 -12.10124,0.58496 -12.57892,0.29248 -0.31845,-0.29248 -1.11459,-4.82596 -1.59227,-10.09064 l -0.79613,-9.35943 4.7768,-0.73121 c 2.54763,-0.43872 7.64289,-0.87745 11.14588,-1.16993 3.50299,-0.29248 6.84676,-0.58496 7.48366,-0.7312 0.63691,-0.14625 1.43305,0.14624 1.91073,0.87744 z m 8.43902,23.25235 c 0.47768,1.02368 -3.34376,2.04737 -10.19052,2.63234 -5.89139,0.43872 -13.21583,1.16993 -15.92268,1.60865 -3.98068,0.58497 -5.25449,0.14624 -5.25449,-1.46241 0,-1.60865 2.86608,-2.33986 10.82743,-3.07107 5.89139,-0.43872 12.10124,-1.02368 13.85273,-1.31617 4.45835,-0.58496 6.05062,-0.29248 6.68753,1.60866 z"
       id="path136"
       style="fill:#000000;stroke:none;stroke-width:0.15259594"
       inkscape:connector-curvature="0" />
    <path
       d="m 777.02702,898.28548 c -0.31846,8.77447 15.12655,16.96397 25.79475,13.74667 6.68752,-2.04738 13.85273,-9.2132 13.69351,-13.74667 0,-2.33986 -0.47768,-1.90114 -1.91073,1.75489 -5.73216,14.9166 -29.93464,14.9166 -35.66681,0 -1.43304,-3.65603 -1.91072,-4.09475 -1.91072,-1.75489 z"
       id="path138"
       style="fill:#000000;stroke:none;stroke-width:0.15259594"
       inkscape:connector-curvature="0" />
    <path
       d="m 839.92162,930.60477 c -0.95536,1.46242 -4.61758,32.61178 -3.82144,33.19675 0.79613,0.87744 32.32305,3.36354 33.43764,2.77858 0.47768,-0.29248 1.43304,-5.11844 2.06995,-10.52936 0.47768,-5.41093 1.27381,-12.86923 1.75149,-16.6715 l 0.79613,-6.72709 -12.41969,-1.02369 c -6.84675,-0.43872 -14.33042,-1.16993 -16.71882,-1.60865 -2.22917,-0.43872 -4.61758,-0.14624 -5.09526,0.58496 z m 21.81408,2.4861 c 11.46433,1.02369 14.8081,3.65603 4.45835,3.65603 -13.53428,0 -25.63552,-1.90113 -25.63552,-3.94851 0,-1.46241 1.43304,-1.90113 5.25449,-1.31617 2.70685,0.43872 9.87206,1.16993 15.92268,1.60865 z m 2.70686,5.84965 c 0.47768,0.29248 0.47768,4.82596 0.31845,10.09064 l -0.63691,9.65192 h -5.89139 c -3.34376,0 -9.23516,-0.43873 -13.0566,-0.87745 l -7.00598,-0.87745 0.47768,-6.87333 c 0.95536,-14.03915 0.47768,-13.60043 13.53428,-12.4305 6.36907,0.43872 11.78279,1.16993 12.26047,1.31617 z m 6.68752,7.60454 c -0.6369,9.50568 -1.75149,13.60043 -3.50299,13.60043 -1.75149,0 -2.06994,-8.92071 -0.6369,-15.94029 1.59227,-7.31206 4.7768,-5.55716 4.13989,2.33986 z m -12.57892,14.33163 c 7.80212,0.73121 10.6682,1.46242 10.6682,3.07107 0,1.60865 -1.27381,2.04737 -5.09526,1.46241 -2.86608,-0.43872 -10.03129,-1.16993 -15.92268,-1.60865 -6.05062,-0.58497 -10.82743,-1.46241 -10.82743,-2.04738 0,-2.19362 2.06995,-2.92482 6.20985,-2.33986 2.22918,0.29248 8.9167,1.02369 14.96732,1.46241 z"
       id="path140"
       style="fill:#000000;stroke:none;stroke-width:0.15259594"
       inkscape:connector-curvature="0" />
  </g>
</svg>
