<svg xmlns="http://www.w3.org/2000/svg" width="1000" height="1000" ><path d="M 104.26181,610.94807 V 578.36625 H 52.130904 0 V 299.75553 21 H 450.35309 900.7062 V 322.92482 624.70483 H 739.24518 577.78419 V 601.53554 578.36625 H 416.32319 254.8622 v 32.58182 32.58181 H 179.562 104.26181 Z m 130.32726,28.23757 c 0,-2.89616 -1.01366,-2.89616 -53.57899,-2.89616 -52.56532,0 -53.57898,0 -53.57898,2.89616 0,2.89616 1.01366,2.89616 53.57898,2.89616 52.56533,0 53.57899,0 53.57899,-2.89616 z m 0,-7.2404 c 0,-2.89617 -1.01366,-2.89617 -53.57899,-2.89617 -52.56532,0 -53.57898,0 -53.57898,2.89617 0,2.89616 1.01366,2.89616 53.57898,2.89616 52.56533,0 53.57899,0 53.57899,-2.89616 z m 4.34424,-28.96162 V 578.36625 H 179.562 120.19069 l 0.14482,24.61737 v 24.61737 h 59.3713 59.2265 z m 464.8339,17.37697 c 0,-2.75135 -1.01366,-2.89616 -26.7895,-2.89616 -25.77583,0 -26.78949,0.14481 -26.78949,2.89616 0,2.75136 1.01366,2.89616 26.78949,2.89616 25.77584,0 26.7895,-0.1448 26.7895,-2.89616 z m 130.32727,0 c 0,-2.75135 -1.01366,-2.89616 -25.34139,-2.89616 -24.32779,0 -25.34145,0.14481 -25.34145,2.89616 0,2.75136 1.01366,2.89616 25.34145,2.89616 24.32773,0 25.34139,-0.1448 25.34139,-2.89616 z m -130.32727,-7.2404 c 0,-2.75136 -1.01366,-2.89616 -26.7895,-2.89616 -25.77583,0 -26.78949,0.1448 -26.78949,2.89616 0,2.75135 1.01366,2.89616 26.78949,2.89616 25.77584,0 26.7895,-0.14481 26.7895,-2.89616 z m 130.32727,0 c 0,-2.75136 -1.01366,-2.89616 -25.34139,-2.89616 -24.32779,0 -25.34145,0.1448 -25.34145,2.89616 0,2.75135 1.01366,2.89616 25.34145,2.89616 24.32773,0 25.34139,-0.14481 25.34139,-2.89616 z M 884.77727,443.69475 V 278.61355 H 655.40131 426.17014 l -0.86884,5.21309 c -2.02732,12.16388 -12.74312,27.07911 -25.19661,35.04356 -7.53002,4.77866 -20.12832,8.97809 -26.78949,8.97809 h -4.05463 v -24.61737 -24.61737 h -8.68848 -8.68849 v 141.9119 141.91191 h 120.91474 120.91474 v 23.16929 23.1693 h 145.5321 145.53209 z m -548.82255,1.44808 V 327.84829 H 318.72256 301.6352 l -0.86884,5.21309 c -2.02732,12.16389 -12.74311,27.07911 -25.19661,35.04356 -7.53002,4.77866 -20.12832,8.9781 -26.78949,8.9781 h -4.05463 V 353.1897 329.29637 H 130.32726 15.928887 v 116.5705 116.57049 H 175.94181 335.95472 Z M 262.24741,372.7388 c 20.85236,-6.51637 34.89875,-23.45891 38.37414,-45.90416 l 1.01365,-6.22675 h -27.80314 -27.65835 v 27.51354 27.51353 h 3.4754 c 1.8825,0 7.53002,-1.30328 12.5983,-2.89616 z m 124.53494,-49.23475 c 20.85236,-6.51636 34.89874,-23.45891 38.37413,-45.90415 l 1.01366,-6.22675 h -27.80315 -27.65833 v 27.51353 27.51353 h 3.47538 c 1.88251,0 7.53003,-1.30327 12.59831,-2.89616 z m -85.58157,-7.2404 c 0,-2.75135 -1.01366,-2.89616 -27.51353,-2.89616 -26.49988,0 -27.51354,0.14481 -27.51354,2.89616 0,2.75135 1.01366,2.89616 27.51354,2.89616 26.49987,0 27.51353,-0.14481 27.51353,-2.89616 z m -112.95029,-28.672 v -25.92064 l -6.08194,-1.7377 c -22.44525,-6.66117 -39.82222,-26.9343 -41.41511,-48.22109 l -0.57923,-8.39886 h 24.03814 24.03814 V 181.59215 159.87093 H 175.21777 162.18503 V 98.327511 36.784079 H 89.056962 15.928887 V 175.07578 313.36749 h 86.160803 86.1608 z m 112.51587,24.32776 h 35.18836 v -38.80856 -38.95338 l -6.08194,-1.73769 c -22.44525,-6.66118 -39.82222,-26.9343 -41.41511,-48.22109 l -0.57924,-8.39886 h 24.03815 24.03814 v -7.96445 -7.96445 H 270.35666 204.7586 v 77.0379 l -0.1448,76.89308 30.40969,-0.86885 c 16.79774,-0.57923 46.33859,-1.01365 65.74287,-1.01365 z m 372.59115,-37.6501 c 0,-2.75136 -1.01365,-2.89616 -27.51353,-2.89616 -26.49987,0 -27.51353,0.1448 -27.51353,2.89616 0,2.75135 1.01366,2.89616 27.51353,2.89616 26.49988,0 27.51353,-0.14481 27.51353,-2.89616 z m -247.62179,-7.2404 c 0,-2.75135 -1.01366,-2.89617 -27.51353,-2.89617 -26.49988,0 -27.51353,0.14482 -27.51353,2.89617 0,2.75135 1.01365,2.89616 27.51353,2.89616 26.49987,0 27.51353,-0.14481 27.51353,-2.89616 z m 247.04256,-3.18578 c -4.05462,-26.35507 -22.01082,-44.31127 -48.22109,-48.3659 l -6.22674,-1.01365 v 27.80314 27.65835 h 27.65834 27.80315 z M 456.14541,248.20386 v -14.48081 h 45.61455 45.61453 v 14.48081 14.4808 h 15.20485 15.20485 v -14.4808 -14.48081 h -14.48081 -14.33599 l -0.43443,-17.66658 c -0.28961,-9.84695 -0.28961,-30.4097 0,-45.75935 l 0.43443,-27.94796 14.33599,0.43443 14.48081,0.43442 V 90.073447 36.784079 h -29.68566 -29.68565 v 23.314099 23.314099 l -7.53002,-0.579232 c -10.57098,-0.868849 -22.30044,-6.661171 -30.69931,-15.060039 -6.51636,-6.516363 -13.90157,-18.969857 -13.90157,-23.314099 0,-3.909818 -2.46174,-1.592889 -4.05463,3.620202 -0.86885,2.896161 -2.60654,6.661171 -3.76501,8.254059 -1.15847,1.592889 -0.57923,-1.013656 1.30327,-5.792322 2.02732,-4.778667 3.62021,-11.150222 3.62021,-14.046383 V 30.991757 H 438.04441 412.70299 V 56.333168 81.67458 h 5.06828 c 8.97811,0 21.14198,-5.647515 30.4097,-14.335998 4.77866,-4.489051 7.38521,-6.516363 5.79232,-4.489051 -9.26771,11.439838 -22.44525,18.969857 -35.04356,19.983514 l -7.67482,0.579232 V 60.098178 36.784079 H 381.42445 351.7388 l 0.43442,112.950301 0.43442,112.95028 h 51.84129 51.69648 z m 160.73696,-10.13657 v -24.61737 h 3.33058 c 6.51636,0 20.70756,4.63386 27.51353,8.9781 12.4535,7.96445 23.1693,22.87968 25.19661,35.04355 l 0.86885,5.21309 H 779.21221 884.77727 V 149.73438 36.784079 H 739.24518 593.71308 V 149.73438 262.68466 h 11.58464 11.58465 z m -143.35999,20.27313 c 0,-2.75135 -3.76501,-5.06828 -12.74311,-7.81963 -2.89616,-1.01366 -3.18578,-0.57924 -3.18578,4.77866 v 5.93713 h 7.96445 c 6.95079,0 7.96444,-0.28961 7.96444,-2.89616 z m 13.03272,1.88251 c -1.15846,-0.43443 -4.34424,-1.7377 -6.80597,-2.75136 -4.48906,-1.7377 -4.77867,-1.7377 -4.77867,1.01366 0,2.31693 1.01365,2.75135 6.95079,2.60655 3.76501,0 5.79232,-0.43443 4.63385,-0.86885 z m 23.16929,-5.50271 v -6.51636 h -17.52177 c -17.08735,0 -17.37697,0 -16.94255,3.18577 0.57924,4.63386 13.61196,9.55734 25.48623,9.70215 l 8.97809,0.1448 z m 36.20202,0 v -6.51636 h -17.37696 -17.37698 v 6.51636 6.51636 h 17.37698 17.37696 z m -349.27706,-22.01083 -0.43442,-27.22391 -27.07911,-0.43442 -27.22391,-0.28962 v 5.64751 c 0,12.16388 8.97809,28.81681 20.41793,38.08452 7.0956,5.79232 20.99718,11.15023 28.52719,11.29503 h 6.08194 z m 7.24041,0 c -0.43442,-24.61737 -0.72404,-27.22391 -2.89616,-27.65833 -2.46174,-0.43443 -2.60655,1.59288 -2.60655,27.0791 0,26.7895 0.14481,27.65834 2.89617,27.65834 2.89616,0 2.89616,-0.72404 2.60654,-27.07911 z m 269.63262,18.39063 c 0,-2.46174 -0.86885,-2.89616 -6.08194,-2.75135 l -6.22674,0.1448 5.79232,2.75136 c 3.18577,1.44808 5.93713,2.75135 6.22675,2.75135 0.1448,0 0.28961,-1.30327 0.28961,-2.89616 z m -4.77867,-8.10926 c 3.18578,-1.30326 4.77867,-3.04096 4.77867,-4.92347 0,-2.60654 -1.01365,-2.89616 -7.96444,-2.89616 h -7.96445 v 5.93713 c 0,6.37156 0,6.51636 11.15022,1.8825 z m 4.77867,1.7377 c 0,-1.7377 -0.86885,-1.8825 -4.34424,-0.72404 -2.31693,0.86885 -4.34424,1.88251 -4.34424,2.17212 0,0.28962 2.02731,0.57924 4.34424,0.57924 2.89616,0 4.34424,-0.72404 4.34424,-2.02732 z m 36.20201,-3.765 v -5.79233 h -8.39886 c -9.99176,0 -25.34142,5.3579 -26.06546,9.12291 -0.43442,2.17212 1.30328,2.46174 16.94255,2.46174 h 17.52177 z m 36.20202,0 v -5.79233 h -17.37696 -17.37698 v 5.79233 5.79232 h 17.37698 17.37696 z m -59.37131,-4.77867 c 1.15847,-0.43442 -0.86884,-0.86885 -4.63385,-0.86885 -5.93714,-0.14481 -6.95079,0.28961 -6.95079,2.60655 0,2.75135 0.28961,2.75135 4.77867,1.01365 2.46173,-1.01365 5.64751,-2.31693 6.80597,-2.75135 z m -142.20151,-30.98893 -0.43443,-27.22391 -27.07911,-0.43443 -27.22392,-0.28961 v 5.64751 c 0,12.16388 8.97811,28.8168 20.41794,38.08452 7.09559,5.79232 20.99717,11.15022 28.52719,11.29503 h 6.08194 z m 7.2404,0 c -0.43443,-24.61737 -0.72404,-27.22391 -2.89616,-27.65834 -2.46174,-0.43443 -2.60655,1.59289 -2.60655,27.07911 0,26.78949 0.14481,27.65834 2.89616,27.65834 2.89616,0 2.89616,-0.72404 2.60655,-27.07911 z m 208.81323,25.34141 c -0.14481,-4.05463 -5.79232,-14.19118 -7.96444,-14.19118 -1.7377,0 -2.17213,1.73769 -2.17213,7.96443 v 7.96445 h 5.06829 c 3.04096,0 5.06828,-0.72404 5.06828,-1.7377 z m 15.63928,-5.79232 c -0.28962,-5.93713 -1.01366,-7.81964 -3.04098,-8.10925 -1.73769,-0.43443 -3.33058,1.30327 -5.35789,5.79232 -4.05463,8.9781 -3.76502,9.84695 3.04096,9.84695 h 5.79233 z m -14.1912,-2.60655 c 0,-4.19943 -0.57923,-5.79231 -2.17212,-5.79231 -1.15846,0 -2.17212,0.43442 -2.17212,1.01365 0,1.30327 3.33058,10.57099 3.90982,10.57099 0.28961,0 0.43442,-2.60655 0.43442,-5.79233 z m 5.79233,-4.48905 c 0,-0.72404 -1.01366,-1.30326 -2.17212,-1.30326 -1.5929,0 -2.17213,1.59288 -2.17213,6.22674 l 0.14481,6.08194 2.02732,-4.92347 c 1.15846,-2.60655 2.17212,-5.35791 2.17212,-6.08195 z m -14.77043,-7.38521 c -2.17212,-6.66117 -2.60655,-6.80598 -2.60655,-0.72404 0,3.76501 0.57924,5.35791 2.02732,5.35791 1.73769,0 1.88251,-0.86886 0.57923,-4.63387 z m 8.9781,-12.74311 v -17.37696 h -5.79232 -5.79233 v 9.99175 c 0,5.50271 0.86886,12.16388 2.02732,14.77042 1.01365,2.75136 2.31693,6.08194 2.75135,7.53003 0.57924,1.30327 2.31693,2.46174 3.90982,2.46174 2.75135,0 2.89616,-0.86886 2.89616,-17.37698 z m 11.15022,7.24041 c 2.31694,-6.51637 3.33058,-11.58465 3.04098,-16.65293 l -0.43444,-7.2404 -6.08193,-0.43443 -6.22675,-0.43443 v 17.52178 c 0,17.08736 0.14481,17.52178 3.04097,17.08736 2.31693,-0.28962 3.90982,-2.75136 6.66117,-9.84695 z m 3.33058,4.05462 c 0,-6.66117 -1.59288,-6.08194 -4.05462,1.44808 -1.44808,4.19944 -1.30327,4.63387 1.30328,4.63387 2.31692,0 2.75134,-1.01366 2.75134,-6.08195 z m -14.4808,-47.49705 v -17.37696 h -5.79232 -5.79233 v 17.37696 17.37698 h 5.79233 5.79232 z m 14.1912,0.43443 -0.43444,-17.08735 -6.08193,-0.43442 -6.22675,-0.43443 v 17.37697 17.52178 h 6.51637 6.66117 z m -305.25541,-6.22675 c 0,-2.75135 -1.01366,-2.89615 -27.51353,-2.89615 -26.49988,0 -27.51354,0.1448 -27.51354,2.89615 0,2.75136 1.01366,2.89616 27.51354,2.89616 26.49987,0 27.51353,-0.1448 27.51353,-2.89616 z m -0.57924,-10.42618 c -4.05462,-26.35506 -22.01082,-44.31126 -48.22109,-48.365891 l -6.22674,-1.013658 v 27.803149 27.65835 h 27.65834 27.80315 z M 214.31594,119.32468 V 94.707304 h 3.33059 c 6.51635,0 20.70755,4.633857 27.51353,8.978106 12.45349,7.96444 23.16929,22.87967 25.1966,35.04355 l 0.86885,5.21309 h 32.2922 32.43701 V 90.363065 c 0,-34.753937 -0.57924,-53.578986 -1.44808,-53.578986 -0.86886,0 -1.44808,10.136565 -1.44808,27.513533 V 91.811144 H 305.54503 278.03149 V 64.152804 36.494463 l -49.95878,0.434424 -49.95879,0.579233 v 53.289367 53.144563 h 18.10101 18.10101 z M 331.61048,64.297612 V 38.23216 h -26.06545 -26.06546 v 26.065452 26.065453 h 26.06546 26.06545 z M 516.9648,56.333168 V 30.991757 h -25.34141 -25.34141 v 5.068282 c 0,20.562745 24.61737,45.469733 45.32492,45.614541 h 5.3579 z M 790.65205,32.439837 c 0,-2.896161 -1.01366,-2.896161 -45.61455,-2.896161 -44.60088,0 -45.61453,0 -45.61453,2.896161 0,2.896162 1.01365,2.896162 45.61453,2.896162 44.60089,0 45.61455,0 45.61455,-2.896162 z M 464.8339,26.647514 c 0,-2.751353 -1.01366,-2.896161 -26.06545,-2.896161 -25.0518,0 -26.06546,0.144808 -26.06546,2.896161 0,2.751354 1.01366,2.896162 26.06546,2.896162 25.05179,0 26.06545,-0.144808 26.06545,-2.896162 z m 52.1309,0 c 0,-2.751353 -1.01366,-2.896161 -25.34141,-2.896161 -24.32776,0 -25.34141,0.144808 -25.34141,2.896161 0,2.751354 1.01365,2.896162 25.34141,2.896162 24.32775,0 25.34141,-0.144808 25.34141,-2.896162 z m 273.68725,-1.44808 c 0,-2.896161 -1.01366,-2.896161 -45.61455,-2.896161 -44.60088,0 -45.61453,0 -45.61453,2.896161 0,2.896161 1.01365,2.896161 45.61453,2.896161 44.60089,0 45.61455,0 45.61455,-2.896161 z" id="path2"  style="stroke-width:0.14480807" /> <path d="m 133.94746,614.56827 c -0.72404,-1.15847 -0.57923,-1.59289 0.43443,-0.86885 2.17212,1.30328 4.92347,-4.05463 3.6202,-7.38521 -0.57924,-1.7377 0,-1.44808 2.17212,1.01366 2.89616,3.47539 3.04097,3.47539 3.18578,0.57922 0,-1.59288 -0.86885,-4.19942 -2.02732,-5.64751 -1.7377,-2.46174 -2.17212,-2.60654 -4.34424,-0.43442 -1.30327,1.30327 -2.31693,3.33059 -2.31693,4.48905 0,2.31692 -10.8606,5.06828 -12.5983,3.33058 -0.57923,-0.43442 0.86885,-0.86884 2.89616,-0.86884 2.17212,0 5.2131,-1.30328 6.80598,-2.89616 5.06829,-5.06829 3.04097,-7.53003 -3.33058,-4.05463 -2.89617,1.44808 -3.04097,1.44808 -1.15847,-0.72404 1.59289,-2.02732 1.59289,-2.89616 0.14481,-4.63386 -1.44808,-1.8825 -0.86885,-1.7377 2.60654,0.28962 5.79233,3.33058 9.26772,1.44808 10.57099,-5.50271 0.57924,-2.75136 1.01366,-3.76501 1.15847,-2.31693 0.14481,2.02731 0.86885,2.46174 3.47539,1.59289 2.75135,-0.86885 2.60655,-0.43442 -1.01365,2.31693 l -4.05463,3.33058 3.33058,1.8825 c 2.89617,1.44809 3.90983,1.44809 6.08195,-0.43442 2.75135,-2.60654 3.33058,-6.95078 1.01365,-8.10925 -0.86885,-0.43442 -0.72404,-0.57923 0.28961,-0.43442 2.89617,0.57923 3.04098,5.21309 0.28962,8.25405 -2.46174,2.60655 -2.31692,2.89617 0.86885,6.37157 4.19944,4.48904 2.46174,7.3852 -3.33059,5.21308 -2.89616,-1.15846 -3.90981,-1.01366 -4.48904,0.72404 -0.43443,1.15847 -1.59289,1.7377 -2.31693,1.30328 -0.86886,-0.57924 -2.75136,0.57923 -4.19944,2.31693 -2.02731,2.46174 -2.89616,2.75135 -3.76501,1.30327 z m 19.25948,-7.53002 c -0.72404,-2.02732 -9.41253,-8.39887 -11.58465,-8.39887 -2.17212,0 3.6202,7.53002 6.66117,8.68849 4.34424,1.73769 5.50271,1.73769 4.92348,-0.28962 z" id="path4"  style="stroke-width:0.14480807" /> <path d="m 134.6715,594.87437 c -3.33058,-3.90982 -7.38521,-5.5027 -8.9781,-3.33058 -1.15846,1.59288 -1.30327,1.59288 -0.72404,-0.14481 0.57923,-2.31693 2.89616,-2.46174 7.0956,-0.72404 1.59289,0.57923 2.60654,0.14481 2.89616,-1.7377 0.28961,-1.44808 0.86885,-0.14481 1.30327,2.89616 0.86885,6.08194 0.86885,6.08194 -1.59289,3.04097 z" id="path6"  style="stroke-width:0.14480807" /> <path d="m 698.55411,521.45668 c -0.43442,-1.15846 -0.57922,-7.09559 -0.28961,-13.46715 l 0.43443,-11.43984 h 24.61737 24.61737 v 13.03273 13.03272 l -24.32775,0.43443 c -19.40429,0.28961 -24.32777,0 -25.05181,-1.59289 z m 3.76502,-11.87426 c 0,-7.2404 -0.57924,-12.30869 -1.44808,-12.30869 -0.86885,0 -1.44808,5.06829 -1.44808,12.30869 0,7.2404 0.57923,12.30868 1.44808,12.30868 0.86884,0 1.44808,-5.06828 1.44808,-12.30868 z m 39.09817,10.8606 c 0,-0.86884 -7.2404,-1.44808 -18.82504,-1.44808 -11.58465,0 -18.82505,0.57924 -18.82505,1.44808 0,0.86886 7.2404,1.44808 18.82505,1.44808 11.58464,0 18.82504,-0.57922 18.82504,-1.44808 z m 5.79233,-10.8606 c 0,-7.2404 -0.57923,-12.30869 -1.44809,-12.30869 -0.86884,0 -1.44808,5.06829 -1.44808,12.30869 0,7.2404 0.57924,12.30868 1.44808,12.30868 0.86886,0 1.44809,-5.06828 1.44809,-12.30868 z m -24.61737,-2.17212 v -10.13657 h -9.41253 -9.41252 v 9.12291 c 0,5.06829 0.43442,9.70214 1.01365,10.13657 0.43443,0.57923 4.77867,1.01365 9.41253,1.01365 h 8.39887 z m 18.82504,0 v -10.13657 h -8.68848 -8.68848 v 10.13657 10.13656 h 8.68848 8.68848 z" id="path8"  style="stroke-width:0.14480807" /> <path d="m 454.69733,497.41854 c -4.63386,-0.86885 -5.21309,-1.30327 -6.37155,-7.67483 l -1.30328,-6.95078 h -12.16387 -12.01907 v -12.01907 -12.16388 l -6.80598,-1.30327 c -6.66118,-1.30328 -6.95079,-1.44808 -7.96444,-7.38521 -0.57924,-3.4754 -0.57924,-8.97811 0,-12.30869 1.01365,-6.08194 1.30326,-6.22675 7.96444,-7.53002 l 6.80598,-1.15847 v -12.16387 -12.16388 h 12.01907 12.16387 l 1.30328,-6.80598 c 1.30327,-6.66117 1.44808,-6.95079 7.53001,-7.96444 3.33059,-0.57923 8.83329,-0.57923 12.16388,0 6.08194,1.01365 6.22675,1.30327 7.53002,7.96444 l 1.15847,6.80598 h 8.39886 8.39887 l 1.15847,-6.80598 c 1.30327,-6.80597 1.44808,-6.95079 7.81964,-7.81963 3.6202,-0.57924 9.1229,-0.57924 12.30868,0 5.5027,0.86884 5.79232,1.15846 7.0956,7.81963 l 1.30327,6.80598 h 12.16387 12.01907 v 12.16388 12.16387 l 6.80599,1.15847 c 6.66116,1.30327 6.95078,1.44808 7.96444,7.53002 0.57923,3.33058 0.57923,8.83329 0,12.16387 -1.01366,6.08195 -1.30328,6.22675 -7.96444,7.53003 l -6.80599,1.30327 v 12.16388 12.01907 h -12.01907 -12.16387 l -1.30327,6.80598 c -1.30328,6.66116 -1.44808,6.95078 -7.38522,7.96444 -3.47539,0.57923 -8.9781,0.57923 -12.30868,0 -6.08194,-1.01366 -6.22675,-1.30328 -7.53002,-7.96444 l -1.15847,-6.80598 h -8.39887 -8.54367 l -1.01366,6.51636 c -0.43442,3.6202 -1.30327,6.80598 -1.8825,7.0956 -2.17212,1.15846 -14.336,1.8825 -18.96986,1.01365 z m 9.12291,-1.15847 c -1.01366,-0.28961 -2.75135,-0.28961 -3.6202,0 -1.01366,0.43443 -0.28962,0.72404 1.7377,0.72404 2.0273,0 2.75134,-0.28961 1.8825,-0.72404 z m 46.33859,0 c -1.01366,-0.28961 -2.75136,-0.28961 -3.62021,0 -1.01366,0.43443 -0.28962,0.72404 1.73769,0.72404 2.02732,0 2.75136,-0.28961 1.88252,-0.72404 z m -55.02708,-1.44808 c -1.01365,-0.28961 -2.75135,-0.28961 -3.6202,0 -1.01365,0.43443 -0.28961,0.72404 1.7377,0.72404 2.02732,0 2.75136,-0.28961 1.8825,-0.72404 z m 15.49447,-0.43442 c -3.33059,-1.01366 -3.33059,-1.15846 -0.57923,-1.30327 2.02731,-0.14481 3.47539,-1.44808 4.05462,-3.33059 1.7377,-6.80597 1.44808,-6.95078 -12.16387,-6.95078 -12.59831,0 -13.03273,0.14481 -13.03273,3.33059 0,1.73769 0.57923,3.90981 1.15846,4.77866 1.01366,1.73769 13.90157,4.48905 20.56275,4.63385 h 3.6202 z m 30.84412,0.43442 c -1.01366,-0.28961 -2.75136,-0.28961 -3.6202,0 -1.01366,0.43443 -0.28962,0.72404 1.73769,0.72404 2.02731,0 2.75135,-0.28961 1.88251,-0.72404 z m 15.49446,-0.43442 c -3.33059,-1.01366 -3.33059,-1.15846 -0.57923,-1.30327 3.33059,-0.14481 4.92347,-2.75135 4.92347,-7.53002 0,-2.46174 -1.15846,-2.75135 -13.03273,-2.75135 -13.61195,0 -13.90157,0.14481 -12.16387,6.66117 0.72404,2.60655 2.46174,3.47539 8.9781,4.63385 4.63385,0.72404 9.84695,1.44808 11.87426,1.44808 h 3.6202 z m 28.96161,-50.68282 v -37.6501 h -60.81939 -60.81938 v 37.6501 37.6501 h 60.81938 60.81939 z m -123.08685,0 c 0,-13.61196 -0.14481,-13.90157 -6.66117,-12.16388 -2.60655,0.72404 -3.33059,2.60655 -4.77867,10.7158 -1.7377,11.15022 -1.8825,15.49446 -0.14481,10.13656 1.01366,-3.33059 1.15847,-3.33059 1.30327,-0.43442 0.14481,3.33058 1.88251,4.48905 7.0956,4.63386 3.04097,0.1448 3.18578,-0.28962 3.18578,-12.88792 z m 132.64418,11.87426 c 0.86886,-0.57923 2.31694,-5.3579 3.33059,-10.57099 1.7377,-10.7158 1.88251,-15.49446 0.14481,-9.99175 -1.01366,3.33058 -1.15846,3.33058 -1.30328,0.57923 -0.1448,-2.02732 -1.44808,-3.4754 -3.33058,-4.05463 -6.80597,-1.73769 -6.95079,-1.44808 -6.95079,12.16388 0,12.5983 0.14482,13.03272 3.33059,13.03272 1.7377,0 3.90982,-0.57922 4.77866,-1.15846 z m 4.48906,-5.64751 c -0.43443,-1.44808 -0.72404,-0.57924 -0.72404,1.73769 0,2.46174 0.28961,3.4754 0.72404,2.60655 0.28961,-1.01366 0.28961,-3.04097 0,-4.34424 z m -150.6004,-7.96445 c -0.43442,-1.01366 -0.72404,-0.28962 -0.72404,1.7377 0,2.02731 0.28962,2.75135 0.72404,1.88251 0.28962,-1.01366 0.28962,-2.75136 0,-3.62021 z m 152.04848,0 c -0.43443,-1.01366 -0.72404,-0.28962 -0.72404,1.7377 0,2.02731 0.28961,2.75135 0.72404,1.88251 0.28961,-1.01366 0.28961,-2.75136 0,-3.62021 z m -150.6004,-7.96444 c -0.43442,-1.44808 -0.72404,-0.57923 -0.72404,1.7377 0,2.46174 0.28962,3.47539 0.72404,2.60654 0.28962,-1.01366 0.28962,-3.04097 0,-4.34424 z m 63.57075,-34.0299 c -0.43442,-2.46174 -1.30328,-4.92347 -1.59289,-5.35789 -0.43443,-0.43443 -5.3579,-0.72404 -11.00541,-0.72404 -10.86061,0 -12.88792,1.15846 -12.88792,7.53001 0,3.04097 0.43442,3.18578 13.17753,3.18578 h 13.32235 z m 46.91781,1.44808 c 0,-5.35789 -1.59288,-6.51636 -11.72945,-8.25405 -10.7158,-1.7377 -15.49446,-1.88251 -9.99176,-0.14482 3.33059,1.01366 3.33059,1.15847 0.57923,1.30328 -2.02731,0.1448 -3.47539,1.44808 -4.05462,3.47539 -1.7377,6.66117 -1.44808,6.80598 12.16387,6.80598 12.59831,0 13.03273,-0.14481 13.03273,-3.18578 z m -64.72921,-9.41252 c -1.01365,-0.28961 -3.04096,-0.28961 -4.34424,0 -1.44808,0.43443 -0.57923,0.72404 1.7377,0.72404 2.46174,0 3.4754,-0.28961 2.60654,-0.72404 z m 15.9289,0 c -1.01366,-0.28961 -3.04098,-0.28961 -4.34425,0 -1.44808,0.43443 -0.57923,0.72404 1.7377,0.72404 2.46173,0 3.47539,-0.28961 2.60655,-0.72404 z m 46.33857,0 c -1.01365,-0.28961 -3.04096,-0.28961 -4.34424,0 -1.44808,0.43443 -0.57923,0.72404 1.7377,0.72404 2.46174,0 3.4754,-0.28961 2.60654,-0.72404 z M 464.39948,390.695 c -0.43444,-0.43443 -1.7377,-0.57924 -2.75136,-0.14481 -1.15847,0.43443 -0.72404,0.86885 0.86885,0.86885 1.59289,0.1448 2.46173,-0.28962 1.88251,-0.72404 z m 46.33857,0 c -0.43442,-0.43443 -1.7377,-0.57924 -2.75135,-0.14481 -1.15846,0.43443 -0.72404,0.86885 0.86885,0.86885 1.59288,0.1448 2.46174,-0.28962 1.8825,-0.72404 z" id="path10"  style="stroke-width:0.14480807" /> <path d="m 755.17407,480.91042 c -0.43442,-1.01365 -0.57923,-12.30868 -0.43442,-24.90699 l 0.43442,-23.16929 h 13.03273 13.03272 v 24.61737 24.61738 l -12.74311,0.43442 c -9.41252,0.28962 -12.88792,-0.14481 -13.32234,-1.59289 z m 25.34141,-1.01365 c 0,-0.86886 -5.06828,-1.44808 -12.30868,-1.44808 -7.2404,0 -12.30869,0.57922 -12.30869,1.44808 0,0.86884 5.06829,1.44808 12.30869,1.44808 7.2404,0 12.30868,-0.57924 12.30868,-1.44808 z m -4.63386,-12.59831 0.43443,-9.12291 h -10.28137 -10.13657 v 9.41253 9.55733 l 9.84695,-0.43442 9.70214,-0.43442 z m 4.63386,-9.12291 c 0,-11.58464 -0.57923,-18.82504 -1.44808,-18.82504 -0.86884,0 -1.44808,7.2404 -1.44808,18.82504 0,11.58465 0.57924,18.82506 1.44808,18.82506 0.86885,0 1.44808,-7.24041 1.44808,-18.82506 z m -4.34424,-10.13656 v -8.68848 h -10.13656 -10.13657 v 8.68848 8.68848 h 10.13657 10.13656 z m 4.34424,-13.03272 c 0,-0.86885 -5.06828,-1.44809 -12.30868,-1.44809 -7.2404,0 -12.30869,0.57924 -12.30869,1.44809 0,0.86884 5.06829,1.44808 12.30869,1.44808 7.2404,0 12.30868,-0.57924 12.30868,-1.44808 z" id="path12"  style="stroke-width:0.14480807" /> <path d="m 715.49666,475.98695 c -7.2404,-3.76501 -11.00541,-9.55733 -11.00541,-17.08736 0,-11.43983 11.15022,-20.85236 22.01083,-18.82504 6.95078,1.30327 14.33599,8.68848 15.63926,15.63927 2.75136,14.4808 -13.75676,27.07911 -26.64468,20.27313 z m 18.24581,-2.60655 c 8.54369,-5.64752 9.55734,-19.40428 2.02732,-26.9343 -14.04638,-14.04638 -37.21568,2.75136 -28.09277,20.41794 4.77867,9.41253 16.94255,12.45349 26.06545,6.51636 z" id="path14"  style="stroke-width:0.14480807" /> <path d="m 722.59226,290.92223 v -10.86059 h 60.09534 60.09533 v 10.86059 10.86061 H 782.6876 722.59226 Z m 118.74262,0 v -9.41251 H 782.6876 724.04034 v 9.41251 9.41253 h 58.64726 58.64728 z" id="path16"  style="stroke-width:0.14480807" /> <path d="m 17.376968,484.241 v -73.8521 h 10.860605 10.860605 v 73.8521 73.85212 H 28.237573 17.376968 Z m 20.273129,70.23192 c 0,-1.7377 -2.027313,-2.17212 -8.9781,-2.31693 -5.068282,-0.1448 -7.819635,-0.57924 -6.226747,-0.86884 2.606545,-0.43444 2.896162,-1.44808 2.461737,-9.84695 -0.434424,-6.95079 -1.013656,-9.41253 -2.606545,-9.41253 -1.44808,0 -2.027312,2.02731 -2.027312,7.81963 0,4.19944 -0.434425,9.84695 -0.868849,12.30869 l -0.868849,4.48905 h 9.557333 c 7.530019,0 9.557332,-0.43442 9.557332,-2.17212 z m -0.72404,-23.89333 c 0,-11.15022 -0.579232,-20.27313 -1.158464,-20.27313 -0.724041,0 -0.868849,0.57923 -0.434425,1.15847 0.434425,0.72404 -3.040969,0.57922 -7.530019,-0.28962 l -8.25406,-1.59289 9.122908,-0.43443 8.9781,-0.43442 v -48.3659 -48.51069 h -9.412524 -9.412524 v 44.60088 c 0,53.28937 1.013656,72.69365 3.909818,72.69365 1.303273,0 2.027312,-2.60655 2.17212,-8.9781 l 0.289616,-9.12291 0.434425,8.39887 0.579232,8.25406 5.357898,0.14481 c 3.330586,0.1448 4.199435,0.43442 2.172122,0.86885 -4.054626,0.72404 -4.344242,3.33058 -0.434424,3.33058 1.592888,0 2.896161,0.57923 2.896161,1.15846 0,0.57924 -2.316929,0.86885 -5.068283,0.57924 l -5.068282,-0.57924 v 8.25407 8.25405 l 4.923475,-0.57923 c 2.751353,-0.28961 4.633857,0 4.344241,0.57923 -0.434424,0.57924 -0.289616,1.15846 0.434425,1.15846 0.579232,0 1.158464,-9.1229 1.158464,-20.27312 z" id="path18"  style="stroke-width:0.14480807" /> <path d="m 173.04564,542.59866 c -9.84695,-0.86885 -10.7158,-1.7377 -5.93713,-5.50271 3.33059,-2.60654 3.90982,-3.90982 2.75135,-5.3579 -1.30327,-1.59288 0.28962,-1.7377 9.26772,-1.15846 11.29503,0.72404 13.75677,0 15.49447,-4.77867 0.72404,-2.17212 0.28961,-2.46174 -2.31694,-1.59288 -4.19943,1.30326 -16.94254,1.30326 -20.99717,0 -2.31692,-0.72404 -3.33058,-0.28962 -3.765,1.59288 -0.57924,2.02732 -0.72404,2.17212 -0.86886,0.28962 0,-1.30328 -3.765,-4.77866 -8.10925,-7.67483 -4.63385,-3.04097 -9.84695,-8.25406 -12.5983,-12.45349 -2.60654,-3.90982 -5.64752,-7.24041 -6.66117,-7.24041 -1.01365,0 -3.47539,-1.59288 -5.3579,-3.47539 l -3.6202,-3.6202 -3.04097,4.34424 c -4.63386,6.51636 -5.93713,3.6202 -5.93713,-12.88792 0,-17.23216 0.86885,-19.6939 5.21309,-14.336 l 3.18578,3.90982 5.64751,-2.89616 c 3.04097,-1.59289 5.79233,-2.60654 6.08194,-2.46174 0.28962,0.28962 -0.14481,3.76501 -0.86885,7.67483 -5.21309,27.65835 20.27313,53.57899 47.64186,48.36589 3.6202,-0.72404 7.0956,-1.30326 7.67482,-1.44808 2.02732,0 -0.57922,6.37156 -3.47539,8.97811 -2.75135,2.31692 -2.75135,2.46173 1.7377,5.5027 2.46173,1.88251 3.90981,3.76501 3.18577,4.34425 -1.44808,1.30326 -16.65292,2.46173 -24.32775,1.8825 z m 18.24582,-1.8825 c 2.31693,0 4.19943,-0.57924 4.19943,-1.44808 0,-0.72405 -1.7377,-1.44809 -3.90982,-1.44809 -2.89616,0 -3.47539,-0.43442 -2.02731,-1.30327 1.59289,-1.01366 1.30327,-1.59289 -1.30327,-3.04097 -3.04097,-1.59289 -3.18578,-1.59289 -2.60655,2.17212 l 0.86885,4.05463 -9.99176,-1.01366 c -5.64751,-0.43442 -10.13656,-0.28962 -10.71579,0.43442 -0.86885,1.5929 10.57099,2.89616 17.23216,2.17212 2.31692,-0.28961 5.93713,-0.57922 8.25406,-0.57922 z m -14.62561,-6.66118 c 0,-2.60655 -2.02732,-2.60655 -4.19944,0 -1.30327,1.59289 -1.30327,2.17212 0.14481,2.75136 2.46173,0.86884 4.05463,-0.14481 4.05463,-2.75136 z m 6.95078,1.30327 c -0.28961,-1.44808 -1.44808,-2.60654 -2.60655,-2.60654 -1.15846,0 -2.31693,1.15846 -2.60654,2.60654 -0.28962,1.7377 0.43442,2.46174 2.60654,2.46174 2.17212,0 2.89616,-0.72404 2.60655,-2.46174 z m -58.35765,-52.56532 c 0,-7.96444 -0.43443,-14.48081 -0.86885,-14.48081 -1.44808,0 -2.46174,13.61196 -1.59289,21.72121 1.15847,12.01907 2.46174,8.10925 2.46174,-7.2404 z m 15.20485,13.90157 c 0,-0.28961 -0.57924,-3.6202 -1.30328,-7.53002 -0.72404,-3.90982 -0.86884,-9.84695 -0.28962,-13.17753 0.86886,-4.34424 0.72404,-6.22675 -0.43442,-6.22675 -3.90982,0.14481 -5.06828,2.75135 -5.35789,12.88792 -0.28962,8.9781 0.1448,11.00541 2.31692,12.5983 2.60655,1.88251 5.06829,2.60655 5.06829,1.44808 z m -10.86061,-9.26772 c -3.18578,-0.72404 -3.90982,0.14481 -2.75135,3.33059 1.01365,2.46174 1.15846,2.46174 3.04097,-0.14481 1.7377,-2.46174 1.7377,-2.75135 -0.28962,-3.18578 z m 1.44808,-4.63385 c 0,-1.15847 -1.15846,-2.31693 -2.46174,-2.60655 -1.8825,-0.28961 -2.60654,0.43443 -2.60654,2.60655 0,2.17211 0.72404,2.89615 2.60654,2.60655 1.30328,-0.28962 2.46174,-1.44809 2.46174,-2.60655 z m 0.72404,-5.64752 c 0,-0.72404 -0.86884,-2.02731 -2.02731,-2.89616 -1.44808,-1.30327 -2.17212,-1.15846 -2.75135,0.43442 -0.43443,1.15847 -0.43443,2.46174 0,2.89616 1.30327,1.30328 4.77866,1.01366 4.77866,-0.43442 z" id="path20"  style="stroke-width:0.14480807" /> <path d="m 205.19303,516.82282 c 4.48905,-3.04097 9.12291,-7.81963 11.43984,-11.58464 2.02731,-3.6202 4.05463,-6.51637 4.48905,-6.51637 0.43442,0 -0.86885,2.75136 -2.89616,6.22675 -3.33059,5.64751 -15.92889,16.94254 -19.11467,16.94254 -0.72404,0 2.02731,-2.31692 6.08194,-5.06828 z" id="path22"  style="stroke-width:0.14480807" /> <path d="m 234.87869,496.40489 c -2.46174,-3.6202 -3.18578,-3.76502 -5.2131,-2.17212 -2.17212,1.8825 -2.31692,1.59288 -0.86884,-1.88251 3.18578,-8.54368 1.01366,-22.59006 -3.4754,-22.59006 -1.44808,0 -1.59289,1.44808 -0.72404,6.22675 0.57923,3.33058 0.57923,8.97809 -0.14481,12.5983 -0.86884,4.48905 -0.72404,6.80598 0.43443,7.53002 1.15846,0.72404 0.86885,1.15846 -0.86885,1.15846 -2.17212,0 -2.31693,-0.86884 -1.44808,-6.08194 1.30327,-7.81963 1.30327,-10.42618 0,-18.101 -0.86885,-5.50271 -0.72404,-5.93713 1.8825,-5.21309 1.59289,0.43442 3.90982,2.02731 4.92348,3.6202 1.88251,2.60655 2.17212,2.60655 5.21309,-1.7377 2.17212,-3.04097 3.76501,-4.05462 4.63386,-3.18578 1.88251,1.8825 1.88251,30.55451 0,32.43701 -0.86885,0.86885 -2.31693,0 -4.34424,-2.60654 z m 4.34424,-6.37156 c 0.86885,-8.9781 -0.28962,-21.72121 -1.88251,-21.72121 -0.72404,0 -1.30327,1.7377 -1.44808,4.05463 0,2.17212 -0.43442,3.04096 -0.86885,2.02731 -0.86884,-2.31693 -3.33058,-0.72404 -3.33058,2.17212 0,1.59289 0.86884,2.02731 3.04096,1.44808 3.04098,-0.86885 3.18579,-0.57923 2.17213,9.26772 -0.43443,5.50271 -0.28962,9.99175 0.43442,9.99175 0.57924,0 1.59289,-3.18578 1.88251,-7.2404 z m -4.63386,-2.02731 c -2.02732,-2.02732 -3.4754,0 -2.31693,3.04097 0.86885,2.17212 1.15847,2.17212 2.31693,0.43442 0.86885,-1.30327 0.72404,-2.75135 0,-3.47539 z m 1.44808,-5.21309 c 0,-1.59289 -1.01366,-2.89616 -2.17212,-2.89616 -1.15846,0 -2.17212,1.30327 -2.17212,2.89616 0,1.59289 1.01366,2.89615 2.17212,2.89615 1.15846,0 2.17212,-1.30326 2.17212,-2.89615 z" id="path24"  style="stroke-width:0.14480807" /> <path d="m 141.91191,464.98154 c 0,-3.18578 9.84695,-14.77043 15.63926,-18.53544 3.4754,-2.17212 7.67483,-6.08193 9.12291,-8.54367 1.44808,-2.31693 3.4754,-4.34425 4.48906,-4.34425 1.01365,0 -0.28962,-1.8825 -3.04098,-4.19943 -6.51636,-5.3579 -4.77866,-6.22675 12.88792,-6.22675 16.94255,0 19.40428,0.86885 13.90158,5.3579 l -3.90982,3.18578 3.04097,5.21309 c 1.7377,3.04096 2.60654,5.3579 1.8825,5.3579 -0.57922,-0.14481 -4.05462,-0.72404 -7.67482,-1.44808 -14.91523,-2.89616 -32.43701,4.77867 -41.41511,17.9562 -2.60654,4.05462 -4.92347,6.80597 -4.92347,6.22675 z m 32.72662,-25.48623 c 3.90982,-0.72404 9.84695,-0.86884 13.32234,-0.28961 3.33059,0.72403 6.08194,0.86885 6.08194,0.28961 -0.1448,-3.04096 -3.47539,-4.92347 -9.84695,-5.64751 -9.26771,-0.86885 -14.336,0.43442 -16.2185,4.05463 -0.86885,1.59288 -1.30328,2.89616 -1.01366,2.89616 0.28962,0 3.76501,-0.57924 7.67483,-1.30328 z m 1.59288,-10.42617 c -0.86884,-3.04098 -0.57922,-3.18578 9.26773,-2.17213 5.5027,0.43443 9.99175,0.28962 9.99175,-0.43442 0,-1.59289 -12.5983,-2.75136 -21.72121,-1.88251 -7.67482,0.72404 -9.99176,3.04098 -3.18578,3.33059 2.17213,0 3.04097,0.43443 2.02732,0.86885 -2.31693,0.86884 -0.72404,3.33058 2.17212,3.33058 1.59289,0 2.02731,-0.86884 1.44807,-3.04096 z m 7.67483,0.86884 c 0,-1.15846 -1.30327,-2.17212 -2.89616,-2.17212 -1.59289,0 -2.89616,1.01366 -2.89616,2.17212 0,1.15846 1.30327,2.17212 2.89616,2.17212 1.59289,0 2.89616,-1.01366 2.89616,-2.17212 z m 6.37156,0.86885 c 0.43442,-0.72404 0,-1.59289 -1.15846,-2.02731 -2.17212,-0.86885 -3.76502,0.1448 -3.76502,2.17212 0,1.59289 3.90982,1.44808 4.92348,-0.14481 z" id="path26"  style="stroke-width:0.14480807" /> <path d="m 216.48806,458.75479 c -2.46173,-4.19944 -6.51636,-8.39887 -11.00542,-11.15023 -7.81963,-4.77866 -9.41251,-6.66117 -2.89616,-3.33058 6.66118,3.4754 12.16389,8.83329 15.78409,15.20485 4.63385,8.10925 2.89615,7.53001 -1.88251,-0.72404 z" id="path28"  style="stroke-width:0.14480807" /> <path d="m 22.590058,399.67309 c -3.475393,-5.35789 -3.330585,-32.14738 0.289617,-36.78124 2.461737,-3.18578 3.185777,-3.33059 21.286786,-2.89616 l 18.825049,0.43442 0.72404,17.37697 c 1.158464,26.35507 2.751353,24.47256 -19.838705,25.05179 -18.680242,0.43442 -18.82505,0.28962 -21.286787,-3.18578 z M 56.475147,381.42728 V 361.15415 H 40.546259 24.617371 v 20.27313 20.27313 h 15.928888 15.928888 z m 5.792322,0 c 0,-12.5983 -0.579232,-20.27313 -1.448081,-20.27313 -0.868848,0 -1.44808,7.67483 -1.44808,20.27313 0,12.5983 0.579232,20.27313 1.44808,20.27313 0.868849,0 1.448081,-7.67483 1.448081,-20.27313 z m -39.532602,-8.25406 c -0.289617,-4.63386 -0.434425,-0.86885 -0.434425,8.25406 0,9.12291 0.144808,12.88792 0.434425,8.39887 0.289616,-4.63386 0.289616,-12.16388 0,-16.65293 z" id="path30"  style="stroke-width:0.14480807" /> <path d="m 18.825049,343.05314 v -10.8606 H 43.44242 68.059791 v 10.8606 10.8606 H 43.44242 18.825049 Z m 47.786662,0 v -9.41252 H 43.44242 20.27313 v 9.41252 9.41252 h 23.16929 23.169291 z" id="path32"  style="stroke-width:0.14480807" /> <path d="m 72.404034,343.05314 v -10.8606 h 24.617367 24.617369 v 10.8606 10.8606 H 97.021401 72.404034 Z m 47.786656,0 v -9.41252 H 97.021401 73.852114 v 9.41252 9.41252 h 23.169287 23.169289 z" id="path34"  style="stroke-width:0.14480807" /> <path d="m 125.98302,343.05314 v -10.8606 h 24.61737 24.61738 v 10.8606 10.8606 h -24.61738 -24.61737 z m 47.78666,0 v -9.41252 H 150.60039 127.4311 v 9.41252 9.41252 h 23.16929 23.16929 z" id="path36"  style="stroke-width:0.14480807" /> <path d="m 179.562,343.05314 v -10.8606 h 24.61738 24.61737 v 10.8606 10.8606 H 204.17938 179.562 Z m 47.78667,0 v -9.41252 h -23.16929 -23.1693 v 9.41252 9.41252 h 23.1693 23.16929 z" id="path38"  style="stroke-width:0.14480807" /> <path d="M 18.825049,284.40588 V 259.6437 l 10.570989,0.43442 10.426181,0.43442 0.434424,24.32776 0.289616,24.18295 H 29.685654 18.825049 Z m 19.983513,0.43442 -0.434424,-22.87968 -8.9781,-0.43442 -9.122908,-0.43442 v 23.3141 23.16929 h 9.412524 9.557332 z" id="path40"  style="stroke-width:0.14480807" /> <path d="m 18.825049,227.93073 v -24.76218 l 10.570989,0.43442 10.426181,0.43443 0.434424,24.32775 0.289616,24.18295 H 29.685654 18.825049 Z m 19.983513,0.43442 -0.434424,-22.87967 -8.9781,-0.43442 -9.122908,-0.43443 v 23.3141 23.16929 h 9.412524 9.557332 z" id="path42"  style="stroke-width:0.14480807" /> <path d="M 598.05732,128.7372 V 61.401451 h 10.8606 10.86061 v 67.335749 67.33575 h -10.86061 -10.8606 z m 20.27313,0 V 62.849531 h -9.41253 -9.41252 v 65.887669 65.88767 h 9.41252 9.41253 z" id="path44"  style="stroke-width:0.14480807" /> <path d="m 609.64196,150.89284 c -0.1448,-1.88251 -1.01365,-4.92348 -2.17212,-6.95079 -1.30327,-2.31693 -2.02731,-7.96445 -2.02731,-15.92889 0,-7.96444 0.72404,-13.61196 2.02731,-15.92888 1.15847,-2.02732 2.02732,-5.06829 2.17212,-6.80599 0,-2.0273 0.86885,-3.33058 2.17212,-3.33058 1.88251,0 2.17212,3.90982 2.17212,26.06545 0,22.15564 -0.28961,26.06546 -2.17212,26.06546 -1.30327,0 -2.17212,-1.30328 -2.17212,-3.18578 z m 2.46174,-35.47798 c -0.1448,-7.09559 -0.43442,-1.30328 -0.43442,12.5983 0,13.90157 0.28962,19.6939 0.43442,12.74311 0.28962,-7.09559 0.28962,-18.39062 0,-25.34141 z m -3.76501,17.9562 c -1.15846,-1.15846 -1.59289,-0.28962 -1.59289,2.75135 0,5.79232 2.02732,7.81964 2.60655,2.75136 0.28961,-2.17212 -0.14481,-4.63386 -1.01366,-5.50271 z m 1.30327,-15.63927 c 0,-2.46174 -0.57923,-4.05463 -1.44808,-3.47539 -0.72404,0.43442 -1.44808,2.46173 -1.44808,4.48905 0,1.8825 0.72404,3.47539 1.44808,3.47539 0.86885,0 1.44808,-2.02731 1.44808,-4.48905 z" id="path46"  style="stroke-width:0.14480807" /> <path d="m 710.13876,157.98843 c -0.28961,-1.01366 -0.57923,-7.81963 -0.28961,-14.91523 l 0.43442,-12.88792 h 13.03273 13.03272 v 14.48081 14.4808 l -12.7431,0.43443 c -9.70215,0.28961 -12.88793,0 -13.46716,-1.59289 z m 25.48622,-1.01366 c 0,-0.86884 -5.06828,-1.44808 -12.30868,-1.44808 -7.24041,0 -12.30869,0.57924 -12.30869,1.44808 0,0.86886 5.06828,1.44808 12.30869,1.44808 7.2404,0 12.30868,-0.57922 12.30868,-1.44808 z m -4.63385,-11.87426 0.43442,-8.39886 h -10.28137 -10.13657 v 8.68848 8.83329 l 9.84695,-0.43442 9.70214,-0.43442 z m 4.63385,0.28962 c 0,-4.77866 -0.57923,-8.68848 -1.44808,-8.68848 -0.86885,0 -1.44808,3.90982 -1.44808,8.68848 0,4.77867 0.57923,8.68849 1.44808,8.68849 0.86885,0 1.44808,-3.90982 1.44808,-8.68849 z m 0,-13.03273 c 0,-0.86884 -5.06828,-1.44808 -12.30868,-1.44808 -7.24041,0 -12.30869,0.57924 -12.30869,1.44808 0,0.86885 5.06828,1.44808 12.30869,1.44808 7.2404,0 12.30868,-0.57923 12.30868,-1.44808 z" id="path48"  style="stroke-width:0.14480807" /> <path d="m 710.13876,124.68257 c -0.28961,-1.01365 -0.57923,-7.81963 -0.28961,-14.91523 l 0.43442,-12.887916 h 13.03273 13.03272 v 14.480816 14.4808 l -12.7431,0.43443 c -9.70215,0.28961 -12.88793,0 -13.46716,-1.5929 z m 25.48622,-1.01365 c 0,-0.86885 -5.06828,-1.44808 -12.30868,-1.44808 -7.24041,0 -12.30869,0.57923 -12.30869,1.44808 0,0.86885 5.06828,1.44808 12.30869,1.44808 7.2404,0 12.30868,-0.57923 12.30868,-1.44808 z m -4.63385,-11.87426 0.43442,-8.39887 h -10.28137 -10.13657 v 8.68849 8.83329 l 9.84695,-0.43443 9.70214,-0.43442 z m 4.63385,0.28962 c 0,-4.77867 -0.57923,-8.68849 -1.44808,-8.68849 -0.86885,0 -1.44808,3.90982 -1.44808,8.68849 0,4.77866 0.57923,8.68848 1.44808,8.68848 0.86885,0 1.44808,-3.90982 1.44808,-8.68848 z m 0,-13.032729 c 0,-0.868852 -5.06828,-1.448079 -12.30868,-1.448079 -7.24041,0 -12.30869,0.579227 -12.30869,1.448079 0,0.868845 5.06828,1.448079 12.30869,1.448079 7.2404,0 12.30868,-0.579234 12.30868,-1.448079 z" id="path50"  style="stroke-width:0.14480807" /> <path d="m 296.85654,131.48856 c 0,-10.13657 0.28962,-11.29503 4.05462,-15.06004 7.67483,-7.67483 22.87968,-7.0956 29.10643,1.01365 2.46173,3.04097 3.04097,5.79232 3.04097,14.33601 v 10.71579 h -18.10102 -18.101 z m 34.75394,-0.28962 c 0,-11.72945 -2.17213,-15.49446 -9.99176,-17.8114 -7.2404,-2.17212 -15.49447,-0.57922 -19.83871,3.76502 -3.04097,3.04097 -3.47539,4.92347 -3.47539,13.75676 v 10.13657 h 16.65292 16.65294 z" id="path52"  style="stroke-width:0.14480807" /> <path d="m 312.78542,136.84645 c 0,-1.59289 -1.73769,-3.33059 -4.34423,-4.48905 -8.39887,-3.47539 -9.12291,-11.29503 -1.44808,-15.20484 10.86059,-5.64752 25.05179,1.8825 20.41793,10.71579 -0.86885,1.59289 -2.89616,3.33059 -4.63386,3.76501 -1.59289,0.57924 -3.47539,2.60655 -4.19943,4.48905 -1.59289,4.05463 -5.79233,4.63386 -5.79233,0.72404 z m 2.46174,-4.05463 c -0.43442,-1.44808 -0.72404,-0.57922 -0.72404,1.7377 0,2.46174 0.28962,3.4754 0.72404,2.60655 0.28962,-1.01366 0.28962,-3.04097 0,-4.34425 z m -2.17212,-3.62019 c 0.28962,-1.7377 1.30328,-3.33059 2.31693,-3.4754 1.01365,-0.1448 1.15847,0 0.28961,0.43443 -2.31692,1.15846 -1.73769,3.33058 0.72404,2.46173 1.30328,-0.57923 2.17213,0 2.17213,1.44809 0,1.8825 0.57923,2.0273 3.47539,0.57922 9.26772,-4.19943 4.19943,-14.19118 -7.0956,-14.19118 -11.00541,0 -16.3633,9.99175 -7.53001,14.19118 4.63385,2.17212 5.06828,2.02732 5.64751,-1.44807 z" id="path54"  style="stroke-width:0.14480807" /> <path d="m 186.22318,71.827631 c -3.76502,-4.199433 -4.92348,-10.281372 -3.18578,-17.232159 1.15846,-5.357899 1.01366,-6.516363 -1.15847,-8.109252 -1.7377,-1.303272 -2.31693,-3.185778 -1.8825,-5.502707 l 0.57923,-3.475393 0.28962,3.620202 c 0.1448,3.620201 0.28961,3.620201 13.17753,3.620201 12.5983,0 12.88792,0 13.46715,-3.620201 0.57923,-3.475394 0.57923,-3.475394 0.86885,0.434424 0,2.316929 -0.72404,4.344241 -2.02731,4.778666 -1.7377,0.72404 -2.17212,3.185777 -2.02732,10.281372 0.14481,7.240404 -0.43442,10.281373 -2.60654,13.177535 -3.76501,5.068282 -11.72946,6.081938 -15.49446,2.027312 z m 14.4808,-2.461737 c 3.04097,-4.633857 2.89616,-12.887918 -0.28962,-17.811391 -2.17211,-3.475394 -2.17211,-3.620202 -0.1448,-1.882506 2.17212,1.592889 2.46174,1.592889 2.46174,-0.144808 0,-1.737696 -1.88251,-2.172121 -8.68849,-2.027313 -4.77867,0.144809 -8.68849,0.724041 -8.68849,1.303273 0,0.72404 0.72404,0.72404 1.5929,0.144808 0.86884,-0.434424 0.43442,0.72404 -0.86886,2.896162 -3.04096,4.633857 -3.18577,12.887918 -0.1448,17.521775 3.33058,5.068283 11.43983,5.068283 14.77042,0 z" id="path56"  style="stroke-width:0.14480807" /> <path d="m 189.98818,67.773006 c -1.73769,-1.158465 -3.18578,-3.330586 -3.04096,-4.633859 0,-1.882504 0.28961,-1.737696 1.30327,0.579233 2.31693,5.647514 8.25406,5.21309 10.7158,-0.868849 0.57923,-1.44808 0.72403,-1.303272 0.43442,0.579233 -0.14481,1.448081 -1.59289,3.620201 -3.18578,4.633858 -2.60654,1.737697 -3.47539,1.592888 -6.22675,-0.289616 z" id="path58"  style="stroke-width:0.14480807" /> <path d="m 186.94722,58.215674 c -0.14482,-1.303273 1.30327,-3.475394 3.04096,-4.633859 2.75136,-1.882504 3.62021,-2.027312 6.22675,-0.289616 1.59289,1.013657 3.04097,3.185777 3.18578,4.633858 0.28961,1.882505 -0.14481,1.592889 -1.30328,-0.868848 -1.59288,-3.620202 -1.59288,-3.620202 -2.17212,-0.289616 -0.43442,1.737697 -1.59288,3.185777 -2.60654,3.185777 -1.01366,0 -2.17212,-1.44808 -2.60655,-3.185777 -0.57923,-3.330586 -0.57923,-3.330586 -2.17212,0.289616 -1.01366,2.461737 -1.59288,2.896161 -1.59288,1.158465 z" id="path60"  style="stroke-width:0.14480807" /> <path d="m 307.13791,87.756523 c -12.45349,-0.144813 -21.72121,-1.013658 -22.87967,-2.027315 -2.60655,-2.027315 -2.75136,-40.256645 -0.14481,-42.86319 2.60654,-2.606545 40.83588,-2.461737 42.86318,0.144808 1.44809,1.737697 2.89617,44.166462 1.5929,44.890501 -0.28962,0.144805 -9.99176,0.144805 -21.4316,-0.144804 z m 20.85236,-1.737698 c -0.57923,-0.868852 -1.01366,-10.860608 -1.15846,-22.155637 l -0.28962,-20.562746 h -20.99716 -20.99718 v 20.99717 20.997173 l 20.70756,0.28961 c 11.43983,0.144813 21.14198,0.579235 21.7212,1.013657 1.30328,1.44808 2.02732,1.013658 1.01366,-0.579227 z" id="path62"  style="stroke-width:0.14480807" /> <path d="m 323.35641,83.557085 c 1.15847,-1.882505 -4.05462,-8.833292 -5.64751,-7.385211 -0.57924,0.72404 0.1448,2.606545 1.7377,4.344242 l 2.60654,3.330585 -3.47539,-3.185777 c -2.60655,-2.461737 -3.04097,-3.76501 -1.88251,-4.923475 1.30328,-1.303272 2.31693,-1.303272 4.05463,0.144808 3.76501,3.04097 5.3579,6.950788 3.33058,8.109253 -0.86884,0.579228 -1.15846,0.434423 -0.72404,-0.434425 z" id="path64"  style="stroke-width:0.14480807" /> <path d="m 286.71997,47.644685 c 0,-1.158465 1.01366,-2.172122 2.17212,-2.172122 1.15847,0 2.17212,1.013657 2.17212,2.172122 0,1.158464 -1.01365,2.17212 -2.17212,2.17212 -1.15846,0 -2.17212,-1.013656 -2.17212,-2.17212 z" id="path66"  style="stroke-width:0.14480807" /></svg>