<?xml version="1.0"?>
<svg xmlns="http://www.w3.org/2000/svg" xmlns:lc="http://www.librecad.org" xmlns:xlink="http://www.w3.org/1999/xlink" width="2000mm" height="1000mm" viewBox="0 0 2000 1000" >
  <g lc:layername="0" lc:is_locked="false" lc:is_construction="false" fill="none" stroke="black" stroke-width="1">
        <line x1="100" y1="1000" x2="100" y2="0" style="stroke-width:1;stroke-miterlimit:4;stroke-dasharray:none" />
        <line x1="200" y1="0" x2="200" y2="1000" style="stroke-width:1;stroke-miterlimit:4;stroke-dasharray:none" />
        <line x1="300" y1="0" x2="300" y2="1000" style="stroke-width:1;stroke-miterlimit:4;stroke-dasharray:none" />
        <line x1="400" y1="0" x2="400" y2="1000" style="stroke-width:1;stroke-miterlimit:4;stroke-dasharray:none" />
        <line x1="500" y1="0" x2="500" y2="1000" style="stroke-width:1;stroke-miterlimit:4;stroke-dasharray:none" />
        <line x1="600" y1="0" x2="600" y2="1000" style="stroke-width:1;stroke-miterlimit:4;stroke-dasharray:none" />
        <line x1="700" y1="0" x2="700" y2="1000" style="stroke-width:1;stroke-miterlimit:4;stroke-dasharray:none" />
        <line x1="800" y1="0" x2="800" y2="1000" style="stroke-width:1;stroke-miterlimit:4;stroke-dasharray:none" />
        <line x1="900" y1="0" x2="900" y2="1000" style="stroke-width:1;stroke-miterlimit:4;stroke-dasharray:none" />
        <line x1="1000" y1="0" x2="1000" y2="1000" style="stroke-width:1;stroke-miterlimit:4;stroke-dasharray:none" />
        <line x1="1100" y1="0" x2="1100" y2="1000" style="stroke-width:1;stroke-miterlimit:4;stroke-dasharray:none" />
        <line x1="1200" y1="0" x2="1200" y2="1000" style="stroke-width:1;stroke-miterlimit:4;stroke-dasharray:none" />
        <line x1="1300" y1="0" x2="1300" y2="1000" style="stroke-width:1;stroke-miterlimit:4;stroke-dasharray:none" />
        <line x1="1400" y1="0" x2="1400" y2="1000" style="stroke-width:1;stroke-miterlimit:4;stroke-dasharray:none" />
        <line x1="1500" y1="0" x2="1500" y2="1000" style="stroke-width:1;stroke-miterlimit:4;stroke-dasharray:none" />
        <line x1="1600" y1="0" x2="1600" y2="1000" style="stroke-width:1;stroke-miterlimit:4;stroke-dasharray:none" />
        <line x1="1700" y1="0" x2="1700" y2="1000" style="stroke-width:1;stroke-miterlimit:4;stroke-dasharray:none" />
        <line x1="1800" y1="0" x2="1800" y2="1000" style="stroke-width:1;stroke-miterlimit:4;stroke-dasharray:none" />
        <line x1="1900" y1="0" x2="1900" y2="1000" style="stroke-width:1;stroke-miterlimit:4;stroke-dasharray:none" />
        <line x1="0" y1="100" x2="2000" y2="100" style="stroke-width:1;stroke-miterlimit:4;stroke-dasharray:none" />
        <line x1="0" y1="200" x2="2000" y2="200" style="stroke-width:1;stroke-miterlimit:4;stroke-dasharray:none" />
        <line x1="0" y1="300" x2="2000" y2="300" style="stroke-width:1;stroke-miterlimit:4;stroke-dasharray:none" />
        <line x1="0" y1="400" x2="2000" y2="400" style="stroke-width:1;stroke-miterlimit:4;stroke-dasharray:none" />
        <line x1="0" y1="500" x2="2000" y2="500" style="stroke-width:1;stroke-miterlimit:4;stroke-dasharray:none" />
        <line x1="0" y1="600" x2="2000" y2="600" style="stroke-width:1;stroke-miterlimit:4;stroke-dasharray:none" />
        <line x1="0" y1="700" x2="2000" y2="700" style="stroke-width:1;stroke-miterlimit:4;stroke-dasharray:none" />
        <line x1="0" y1="800" x2="2000" y2="800" style="stroke-width:1;stroke-miterlimit:4;stroke-dasharray:none" />
        <line x1="0" y1="900" x2="2000" y2="900" style="stroke-width:1;stroke-miterlimit:4;stroke-dasharray:none" />

	<path
       d="M 0,0 H 2000 V 1000 H 0 Z"
       style="stroke-width:5;stroke-miterlimit:4;stroke-dasharray:none" />
  </g>
</svg>
