<?xml version="1.0"?>
<svg xmlns="http://www.w3.org/2000/svg" xmlns:lc="http://www.librecad.org" xmlns:xlink="http://www.w3.org/1999/xlink" width="200000mm" height="100000mm" viewBox="0 0 200000 100000">
    <g lc:layername="0" lc:is_locked="false" lc:is_construction="false" fill="none" stroke="black" stroke-width="1">
        <line x1="10000" y1="100000" x2="10000" y2="0"/>
        <line x1="20000" y1="0" x2="20000" y2="100000"/>
        <line x1="30000" y1="0" x2="30000" y2="100000"/>
        <line x1="40000" y1="0" x2="40000" y2="100000"/>
        <line x1="50000" y1="0" x2="50000" y2="100000"/>
        <line x1="60000" y1="0" x2="60000" y2="100000"/>
        <line x1="70000" y1="0" x2="70000" y2="100000"/>
        <line x1="80000" y1="0" x2="80000" y2="100000"/>
        <line x1="90000" y1="0" x2="90000" y2="100000"/>
        <line x1="100000" y1="0" x2="100000" y2="100000"/>
        <line x1="110000" y1="0" x2="110000" y2="100000"/>
        <line x1="120000" y1="0" x2="120000" y2="100000"/>
        <line x1="130000" y1="0" x2="130000" y2="100000"/>
        <line x1="140000" y1="0" x2="140000" y2="100000"/>
        <line x1="150000" y1="0" x2="150000" y2="100000"/>
        <line x1="160000" y1="0" x2="160000" y2="100000"/>
        <line x1="170000" y1="0" x2="170000" y2="100000"/>
        <line x1="180000" y1="0" x2="180000" y2="100000"/>
        <line x1="190000" y1="0" x2="190000" y2="100000"/>
        <line x1="0" y1="10000" x2="200000" y2="10000"/>
        <line x1="0" y1="20000" x2="200000" y2="20000"/>
        <line x1="0" y1="30000" x2="200000" y2="30000"/>
        <line x1="0" y1="40000" x2="200000" y2="40000"/>
        <line x1="0" y1="50000" x2="200000" y2="50000"/>
        <line x1="0" y1="60000" x2="200000" y2="60000"/>
        <line x1="0" y1="70000" x2="200000" y2="70000"/>
        <line x1="0" y1="80000" x2="200000" y2="80000"/>
        <line x1="0" y1="90000" x2="200000" y2="90000"/>
        <path d="M0,0 L200000,0 L200000,100000 L0,100000 L0,0 Z "/>
    </g>
</svg>
